<svg width="16" height="20" viewBox="0 0 16 20" fill="none" xmlns="http://www.w3.org/2000/svg">
<path d="M0 2H16V18H0V2Z" fill="#AEAED6"/>
<path d="M5.21 15.075C5.08 15.075 4.975 15.06 4.895 15.03C4.815 15.01 4.775 14.97 4.775 14.91C4.775 14.84 4.815 14.785 4.895 14.745C4.975 14.705 5.1 14.67 5.27 14.64C5.65 14.57 5.94 14.45 6.14 14.28C6.34 14.1 6.44 13.83 6.44 13.47V7.65C6.44 7.19 6.43 6.84 6.41 6.6C6.39 6.35 6.355 6.175 6.305 6.075C6.265 5.975 6.205 5.92 6.125 5.91C5.985 5.88 5.835 5.865 5.675 5.865C5.525 5.855 5.32 5.85 5.06 5.85H4.355C4.115 5.85 3.875 5.9 3.635 6C3.405 6.09 3.235 6.235 3.125 6.435C3.095 6.485 3.045 6.56 2.975 6.66C2.905 6.75 2.83 6.83 2.75 6.9C2.67 6.97 2.59 7.005 2.51 7.005C2.47 7.005 2.44 6.985 2.42 6.945C2.41 6.905 2.405 6.86 2.405 6.81C2.405 6.71 2.43 6.61 2.48 6.51C2.62 6.22 2.72 5.965 2.78 5.745C2.85 5.515 2.905 5.245 2.945 4.935C2.965 4.765 3 4.665 3.05 4.635C3.11 4.605 3.16 4.59 3.2 4.59C3.24 4.59 3.3 4.65 3.38 4.77C3.47 4.89 3.535 4.99 3.575 5.07C3.635 5.17 3.77 5.245 3.98 5.295C4.2 5.345 4.415 5.37 4.625 5.37H9.905C10.255 5.37 10.54 5.35 10.76 5.31C10.98 5.27 11.17 5.215 11.33 5.145C11.45 5.085 11.545 5.02 11.615 4.95C11.695 4.88 11.795 4.845 11.915 4.845C11.945 4.845 11.97 4.885 11.99 4.965C12.01 5.035 12.02 5.11 12.02 5.19C12.02 5.24 12.01 5.31 11.99 5.4C11.98 5.49 11.97 5.56 11.96 5.61C11.93 5.79 11.9 5.92 11.87 6C11.85 6.08 11.835 6.15 11.825 6.21C11.815 6.27 11.81 6.365 11.81 6.495V6.675C11.81 6.765 11.79 6.87 11.75 6.99C11.71 7.1 11.65 7.155 11.57 7.155C11.5 7.155 11.445 7.1 11.405 6.99C11.365 6.88 11.325 6.73 11.285 6.54C11.245 6.33 11.125 6.165 10.925 6.045C10.725 5.915 10.385 5.85 9.905 5.85H8.39C8.17 5.85 8.005 5.88 7.895 5.94C7.785 6 7.715 6.15 7.685 6.39C7.655 6.63 7.64 7.025 7.64 7.575V13.47C7.64 13.83 7.745 14.1 7.955 14.28C8.165 14.45 8.455 14.57 8.825 14.64C8.995 14.67 9.12 14.705 9.2 14.745C9.28 14.785 9.32 14.84 9.32 14.91C9.32 14.97 9.28 15.01 9.2 15.03C9.12 15.06 9.015 15.075 8.885 15.075C8.615 15.075 8.39 15.065 8.21 15.045C8.04 15.035 7.875 15.025 7.715 15.015C7.555 15.005 7.36 15 7.13 15C6.88 15 6.66 15.005 6.47 15.015C6.29 15.025 6.1 15.035 5.9 15.045C5.71 15.065 5.48 15.075 5.21 15.075Z" fill="black"/>
</svg>
