<svg width="239" height="66" viewBox="0 0 239 66" fill="none" xmlns="http://www.w3.org/2000/svg">
<path d="M6.528 54.512C5.632 54.512 4.8 54.3733 4.032 54.096C3.28533 53.84 2.61333 53.4667 2.016 52.976C1.93067 52.8907 1.84533 52.7947 1.76 52.688C1.696 52.5813 1.64267 52.464 1.6 52.336C1.49333 51.9093 1.41867 51.3547 1.376 50.672C1.35467 49.9893 1.32267 49.424 1.28 48.976C1.28 48.8267 1.344 48.72 1.472 48.656C1.6 48.5707 1.74933 48.528 1.92 48.528C2.02667 48.528 2.13333 48.56 2.24 48.624C2.34667 48.6667 2.41067 48.752 2.432 48.88C2.85867 50.5227 3.488 51.696 4.32 52.4C5.17333 53.104 6.05867 53.456 6.976 53.456C7.72267 53.456 8.384 53.296 8.96 52.976C9.536 52.656 9.984 52.208 10.304 51.632C10.6453 51.0347 10.816 50.3413 10.816 49.552C10.816 48.6773 10.6667 47.9733 10.368 47.44C10.0907 46.8853 9.68533 46.4053 9.152 46C8.61867 45.5947 7.968 45.1573 7.2 44.688C6.368 44.1547 5.54667 43.6213 4.736 43.088C3.92533 42.5333 3.25333 41.904 2.72 41.2C2.18667 40.4747 1.92 39.6 1.92 38.576C1.92 37.488 2.16533 36.5067 2.656 35.632C3.14667 34.7573 3.88267 34.064 4.864 33.552C5.86667 33.0187 7.11467 32.752 8.608 32.752C9.376 32.752 10.0373 32.8373 10.592 33.008C11.168 33.1573 11.6267 33.3067 11.968 33.456C12.1387 33.52 12.2773 33.6267 12.384 33.776C12.512 33.9253 12.5973 34.0853 12.64 34.256C12.768 34.704 12.9067 35.216 13.056 35.792C13.2053 36.368 13.28 36.912 13.28 37.424C13.28 37.6587 13.12 37.776 12.8 37.776C12.608 37.776 12.416 37.7333 12.224 37.648C12.0533 37.5627 11.9467 37.456 11.904 37.328C11.456 36.1973 10.9333 35.3333 10.336 34.736C9.73867 34.1387 8.98133 33.84 8.064 33.84C7.424 33.84 6.82667 33.9573 6.272 34.192C5.71733 34.4267 5.25867 34.8107 4.896 35.344C4.55467 35.8773 4.384 36.592 4.384 37.488C4.384 38.128 4.58667 38.7147 4.992 39.248C5.41867 39.76 5.97333 40.2507 6.656 40.72C7.33867 41.1893 8.07467 41.6693 8.864 42.16C9.61067 42.608 10.336 43.0987 11.04 43.632C11.7653 44.1653 12.352 44.8053 12.8 45.552C13.2693 46.2773 13.504 47.1733 13.504 48.24C13.504 49.4987 13.216 50.608 12.64 51.568C12.064 52.5067 11.2533 53.232 10.208 53.744C9.16267 54.256 7.936 54.512 6.528 54.512ZM21.691 54.48C20.6243 54.48 19.6537 54.2133 18.779 53.68C17.9257 53.1253 17.243 52.3787 16.731 51.44C16.2403 50.48 15.995 49.4133 15.995 48.24C15.995 46.8533 16.2937 45.5947 16.891 44.464C17.5097 43.3333 18.331 42.4373 19.355 41.776C20.379 41.0933 21.5097 40.752 22.747 40.752C24.1337 40.752 25.3497 41.1253 26.395 41.872C26.651 42.064 26.779 42.2667 26.779 42.48C26.779 42.6507 26.7043 42.8427 26.555 43.056C26.4057 43.2693 26.2243 43.4507 26.011 43.6C25.7977 43.728 25.595 43.792 25.403 43.792C25.2963 43.792 25.1897 43.76 25.083 43.696C24.9763 43.6107 24.859 43.5253 24.731 43.44C24.2617 43.0773 23.739 42.736 23.163 42.416C22.587 42.096 22.107 41.936 21.723 41.936C20.6777 41.936 19.8243 42.4267 19.163 43.408C18.523 44.368 18.203 45.6373 18.203 47.216C18.203 48.2187 18.4163 49.1253 18.843 49.936C19.291 50.7467 19.8777 51.3867 20.603 51.856C21.3497 52.3253 22.171 52.56 23.067 52.56C23.6857 52.56 24.219 52.464 24.667 52.272C25.115 52.0587 25.595 51.696 26.107 51.184C26.1497 51.1413 26.203 51.1093 26.267 51.088C26.331 51.0453 26.3843 51.024 26.427 51.024C26.6617 51.024 26.779 51.1733 26.779 51.472C26.779 51.6 26.7363 51.7493 26.651 51.92C26.587 52.0693 26.4697 52.2507 26.299 52.464C25.9577 52.8907 25.5523 53.264 25.083 53.584C24.6137 53.8827 24.091 54.1067 23.515 54.256C22.9603 54.4053 22.3523 54.48 21.691 54.48ZM29.3143 54.096C29.1223 54.096 28.9623 54.064 28.8343 54C28.7276 53.9573 28.6743 53.872 28.6743 53.744C28.6743 53.5733 28.7489 53.456 28.8983 53.392C29.0689 53.328 29.2396 53.2747 29.4103 53.232C29.8583 53.1253 30.1996 52.9973 30.4343 52.848C30.6689 52.6773 30.7863 52.4 30.7863 52.016V45.072C30.7863 44.496 30.6796 43.984 30.4663 43.536C30.2743 43.088 29.9009 42.8213 29.3463 42.736C29.2396 42.7147 29.1543 42.672 29.0903 42.608C29.0476 42.544 29.0263 42.448 29.0263 42.32C29.0263 42.0853 29.1223 41.9573 29.3143 41.936C30.1676 41.744 30.8716 41.488 31.4263 41.168C31.9809 40.8267 32.3969 40.5493 32.6743 40.336C32.8663 40.1867 33.0156 40.112 33.1223 40.112C33.2503 40.112 33.3143 40.1653 33.3143 40.272C33.3143 40.4427 33.2823 40.784 33.2183 41.296C33.1756 41.7867 33.1329 42.3413 33.0903 42.96C33.0476 43.5573 33.0263 44.1013 33.0263 44.592V52.016C33.0263 52.3787 33.1436 52.6453 33.3783 52.816C33.6343 52.9867 33.9756 53.1253 34.4023 53.232C34.5729 53.2747 34.7329 53.328 34.8823 53.392C35.0529 53.456 35.1383 53.5733 35.1383 53.744C35.1383 53.9787 34.9249 54.096 34.4983 54.096C34.0929 54.096 33.7623 54.0747 33.5063 54.032C33.2716 54.0107 33.0369 53.9893 32.8023 53.968C32.5889 53.9467 32.2903 53.936 31.9062 53.936C31.5436 53.936 31.2449 53.9467 31.0103 53.968C30.7756 53.9893 30.5409 54.0107 30.3063 54.032C30.0716 54.0747 29.7409 54.096 29.3143 54.096ZM31.8743 37.488C31.4263 37.488 31.0423 37.3387 30.7223 37.04C30.4236 36.72 30.2743 36.336 30.2743 35.888C30.2743 35.4187 30.4236 35.0347 30.7223 34.736C31.0423 34.416 31.4263 34.256 31.8743 34.256C32.3436 34.256 32.7276 34.416 33.0263 34.736C33.3463 35.0347 33.5063 35.4187 33.5063 35.888C33.5063 36.336 33.3463 36.72 33.0263 37.04C32.7276 37.3387 32.3436 37.488 31.8743 37.488ZM42.566 54.48C41.3927 54.48 40.3687 54.192 39.494 53.616C38.6193 53.04 37.9367 52.2293 37.446 51.184C36.9553 50.1173 36.71 48.8907 36.71 47.504C36.71 46.2667 36.9873 45.1467 37.542 44.144C38.118 43.12 38.8753 42.2987 39.814 41.68C40.7527 41.0613 41.7767 40.752 42.886 40.752C43.7393 40.752 44.4967 40.9227 45.158 41.264C45.8193 41.6053 46.3313 42.0853 46.694 42.704C47.078 43.3013 47.27 43.9947 47.27 44.784C47.27 45.4453 46.95 45.776 46.31 45.776H39.558C39.2593 45.776 39.046 45.8613 38.918 46.032C38.8113 46.1813 38.758 46.4907 38.758 46.96C38.758 47.984 38.982 48.9227 39.43 49.776C39.878 50.608 40.4753 51.28 41.222 51.792C41.9687 52.2827 42.79 52.528 43.686 52.528C44.326 52.528 44.902 52.4107 45.414 52.176C45.9473 51.92 46.4167 51.5573 46.822 51.088C46.9073 50.9813 46.9713 50.9173 47.014 50.896C47.0567 50.8533 47.11 50.832 47.174 50.832C47.3447 50.832 47.43 50.9387 47.43 51.152C47.43 51.5573 47.238 52.0053 46.854 52.496C46.534 52.9013 46.15 53.2533 45.702 53.552C45.254 53.8507 44.7633 54.0747 44.23 54.224C43.6967 54.3947 43.142 54.48 42.566 54.48ZM39.622 44.784H42.534C43.046 44.784 43.4833 44.7733 43.846 44.752C44.2087 44.7307 44.5607 44.688 44.902 44.624C45.0087 44.6027 45.0727 44.5387 45.094 44.432C45.1367 44.304 45.158 44.1333 45.158 43.92C45.158 43.3013 44.8807 42.7787 44.326 42.352C43.7927 41.904 43.1527 41.68 42.406 41.68C41.9153 41.68 41.4247 41.8293 40.934 42.128C40.4433 42.4053 40.038 42.7573 39.718 43.184C39.398 43.6107 39.238 44.0373 39.238 44.464C39.238 44.6773 39.366 44.784 39.622 44.784ZM49.6268 54.096C49.4348 54.096 49.2748 54.064 49.1468 54C49.0401 53.9573 48.9868 53.872 48.9868 53.744C48.9868 53.5733 49.0508 53.4667 49.1788 53.424C49.3068 53.36 49.4881 53.296 49.7228 53.232C50.0428 53.1467 50.3521 53.0293 50.6508 52.88C50.9494 52.7307 51.0988 52.4427 51.0988 52.016V45.136C51.0988 44.56 51.0348 44.0693 50.9068 43.664C50.8001 43.2587 50.4694 42.9813 49.9148 42.832C49.8294 42.7893 49.7548 42.7467 49.6908 42.704C49.6268 42.64 49.5948 42.544 49.5948 42.416C49.5948 42.1813 49.6908 42.0533 49.8828 42.032C50.6294 41.84 51.2374 41.6053 51.7068 41.328C52.1761 41.0507 52.6348 40.7413 53.0828 40.4C53.1468 40.3573 53.2001 40.3253 53.2428 40.304C53.3068 40.2613 53.3708 40.24 53.4348 40.24C53.4774 40.24 53.5094 40.2613 53.5308 40.304C53.5734 40.3467 53.5948 40.4 53.5948 40.464C53.5948 40.6133 53.5628 40.9227 53.4988 41.392C53.4561 41.84 53.4348 42.2133 53.4348 42.512C53.4348 42.5973 53.4348 42.6827 53.4348 42.768C53.4561 42.832 53.4774 42.8747 53.4988 42.896C54.2454 42.192 55.0348 41.6587 55.8668 41.296C56.7201 40.9333 57.6481 40.752 58.6508 40.752C59.6961 40.752 60.5601 41.1787 61.2428 42.032C61.9254 42.8853 62.2668 43.9413 62.2668 45.2V52.016C62.2668 52.4427 62.4161 52.7307 62.7148 52.88C63.0134 53.008 63.3228 53.1253 63.6428 53.232C63.8134 53.296 63.9734 53.3707 64.1228 53.456C64.2934 53.52 64.3787 53.6373 64.3787 53.808C64.3787 53.936 64.3041 54.0107 64.1548 54.032C64.0054 54.0747 63.8668 54.096 63.7388 54.096C63.3121 54.096 62.9814 54.0747 62.7468 54.032C62.5121 54.0107 62.2881 53.9893 62.0748 53.968C61.8614 53.9467 61.5628 53.936 61.1788 53.936C60.8161 53.936 60.5174 53.9467 60.2828 53.968C60.0481 53.9893 59.8028 54.0107 59.5468 54.032C59.3121 54.0747 58.9814 54.096 58.5548 54.096C58.4481 54.096 58.3094 54.0747 58.1388 54.032C57.9894 54.0107 57.9148 53.936 57.9148 53.808C57.9148 53.6373 57.9894 53.52 58.1388 53.456C58.3094 53.3707 58.4801 53.296 58.6508 53.232C58.9708 53.1253 59.2801 53.008 59.5788 52.88C59.8774 52.7307 60.0268 52.4427 60.0268 52.016V45.296C60.0268 44.3573 59.7601 43.632 59.2268 43.12C58.7148 42.5867 58.0214 42.3093 57.1468 42.288C56.3788 42.288 55.7068 42.416 55.1308 42.672C54.5548 42.9067 54.0428 43.2053 53.5948 43.568C53.5094 43.6533 53.4454 43.7707 53.4028 43.92C53.3601 44.048 53.3388 44.176 53.3388 44.304V52.016C53.3388 52.4427 53.4881 52.7307 53.7868 52.88C54.0854 53.0293 54.3948 53.1467 54.7148 53.232C55.2054 53.36 55.4508 53.5307 55.4508 53.744C55.4508 53.872 55.3974 53.9573 55.2908 54C55.1841 54.064 55.0241 54.096 54.8108 54.096C54.3841 54.096 54.0428 54.0747 53.7868 54.032C53.5521 54.0107 53.3281 53.9893 53.1148 53.968C52.9014 53.9467 52.6028 53.936 52.2188 53.936C51.8561 53.936 51.5574 53.9467 51.3228 53.968C51.1094 53.9893 50.8748 54.0107 50.6188 54.032C50.3841 54.0747 50.0534 54.096 49.6268 54.096ZM71.941 54.48C70.8743 54.48 69.9037 54.2133 69.029 53.68C68.1757 53.1253 67.493 52.3787 66.981 51.44C66.4903 50.48 66.245 49.4133 66.245 48.24C66.245 46.8533 66.5437 45.5947 67.141 44.464C67.7597 43.3333 68.581 42.4373 69.605 41.776C70.629 41.0933 71.7597 40.752 72.997 40.752C74.3837 40.752 75.5997 41.1253 76.645 41.872C76.901 42.064 77.029 42.2667 77.029 42.48C77.029 42.6507 76.9543 42.8427 76.805 43.056C76.6557 43.2693 76.4743 43.4507 76.261 43.6C76.0477 43.728 75.845 43.792 75.653 43.792C75.5463 43.792 75.4397 43.76 75.333 43.696C75.2263 43.6107 75.109 43.5253 74.981 43.44C74.5117 43.0773 73.989 42.736 73.413 42.416C72.837 42.096 72.357 41.936 71.973 41.936C70.9277 41.936 70.0743 42.4267 69.413 43.408C68.773 44.368 68.453 45.6373 68.453 47.216C68.453 48.2187 68.6663 49.1253 69.093 49.936C69.541 50.7467 70.1277 51.3867 70.853 51.856C71.5997 52.3253 72.421 52.56 73.317 52.56C73.9357 52.56 74.469 52.464 74.917 52.272C75.365 52.0587 75.845 51.696 76.357 51.184C76.3997 51.1413 76.453 51.1093 76.517 51.088C76.581 51.0453 76.6343 51.024 76.677 51.024C76.9117 51.024 77.029 51.1733 77.029 51.472C77.029 51.6 76.9863 51.7493 76.901 51.92C76.837 52.0693 76.7197 52.2507 76.549 52.464C76.2077 52.8907 75.8023 53.264 75.333 53.584C74.8637 53.8827 74.341 54.1067 73.765 54.256C73.2103 54.4053 72.6023 54.48 71.941 54.48ZM84.3473 54.48C83.1739 54.48 82.1499 54.192 81.2753 53.616C80.4006 53.04 79.7179 52.2293 79.2273 51.184C78.7366 50.1173 78.4913 48.8907 78.4913 47.504C78.4913 46.2667 78.7686 45.1467 79.3233 44.144C79.8993 43.12 80.6566 42.2987 81.5953 41.68C82.5339 41.0613 83.5579 40.752 84.6673 40.752C85.5206 40.752 86.2779 40.9227 86.9392 41.264C87.6006 41.6053 88.1126 42.0853 88.4753 42.704C88.8593 43.3013 89.0513 43.9947 89.0513 44.784C89.0513 45.4453 88.7313 45.776 88.0913 45.776H81.3393C81.0406 45.776 80.8273 45.8613 80.6993 46.032C80.5926 46.1813 80.5393 46.4907 80.5393 46.96C80.5393 47.984 80.7633 48.9227 81.2113 49.776C81.6593 50.608 82.2566 51.28 83.0033 51.792C83.7499 52.2827 84.5713 52.528 85.4673 52.528C86.1073 52.528 86.6833 52.4107 87.1953 52.176C87.7286 51.92 88.1979 51.5573 88.6033 51.088C88.6886 50.9813 88.7526 50.9173 88.7953 50.896C88.8379 50.8533 88.8913 50.832 88.9553 50.832C89.1259 50.832 89.2113 50.9387 89.2113 51.152C89.2113 51.5573 89.0193 52.0053 88.6353 52.496C88.3153 52.9013 87.9313 53.2533 87.4833 53.552C87.0353 53.8507 86.5446 54.0747 86.0113 54.224C85.4779 54.3947 84.9233 54.48 84.3473 54.48ZM81.4033 44.784H84.3153C84.8273 44.784 85.2646 44.7733 85.6273 44.752C85.9899 44.7307 86.3419 44.688 86.6833 44.624C86.7899 44.6027 86.8539 44.5387 86.8753 44.432C86.9179 44.304 86.9392 44.1333 86.9392 43.92C86.9392 43.3013 86.6619 42.7787 86.1073 42.352C85.5739 41.904 84.9339 41.68 84.1873 41.68C83.6966 41.68 83.2059 41.8293 82.7153 42.128C82.2246 42.4053 81.8193 42.7573 81.4993 43.184C81.1793 43.6107 81.0193 44.0373 81.0193 44.464C81.0193 44.6773 81.1473 44.784 81.4033 44.784ZM97.9423 54.16C97.6649 54.16 97.4409 54.128 97.2703 54.064C97.0996 54.0213 97.0143 53.936 97.0143 53.808C97.0143 53.6587 97.0996 53.5413 97.2703 53.456C97.4409 53.3707 97.7076 53.296 98.0703 53.232C98.6036 53.1253 99.0409 52.8693 99.3823 52.464C99.7236 52.0587 99.9476 51.4827 100.054 50.736C100.31 48.816 100.534 46.992 100.726 45.264C100.918 43.5147 101.068 41.9467 101.174 40.56C101.302 39.152 101.366 38 101.366 37.104C101.366 36.9333 101.366 36.752 101.366 36.56C101.366 36.368 101.356 36.1973 101.334 36.048C101.313 35.8773 101.281 35.7067 101.238 35.536C101.196 35.344 101.068 35.1627 100.854 34.992C100.47 34.672 100.097 34.4587 99.7343 34.352C99.3716 34.224 98.9449 34.1173 98.4543 34.032C98.2409 33.9893 98.0703 33.9147 97.9423 33.808C97.8143 33.68 97.7503 33.5413 97.7503 33.392C97.7503 33.2213 97.8463 33.1253 98.0383 33.104C98.2516 33.0613 98.5183 33.04 98.8383 33.04C99.0516 33.04 99.3716 33.0507 99.7983 33.072C100.246 33.0933 100.726 33.1253 101.238 33.168C101.75 33.2107 102.22 33.2427 102.646 33.264C103.094 33.2853 103.425 33.296 103.638 33.296C103.788 33.296 103.916 33.3387 104.022 33.424C104.129 33.5093 104.204 33.6373 104.246 33.808C104.353 34.192 104.46 34.5973 104.566 35.024C104.673 35.4507 104.801 35.8667 104.95 36.272L110.006 49.104C110.07 49.2533 110.188 49.3493 110.358 49.392C110.529 49.4133 110.657 49.3493 110.742 49.2L117.046 36.08C117.153 35.7173 117.26 35.312 117.366 34.864C117.473 34.416 117.558 34.0213 117.622 33.68C117.686 33.4027 117.793 33.264 117.942 33.264H119.094C119.734 33.264 120.406 33.2213 121.11 33.136C121.836 33.0507 122.38 33.008 122.742 33.008C122.849 33.008 122.988 33.0293 123.158 33.072C123.329 33.0933 123.414 33.1787 123.414 33.328C123.414 33.4773 123.35 33.5947 123.222 33.68C123.116 33.7653 122.902 33.872 122.582 34C122.305 34.1067 121.996 34.224 121.654 34.352C121.313 34.48 120.993 34.608 120.694 34.736C120.481 34.8213 120.3 34.9707 120.15 35.184C120.001 35.376 119.926 35.5893 119.926 35.824C119.926 37.3173 119.948 38.7253 119.99 40.048C120.054 41.3493 120.118 42.608 120.182 43.824C120.246 45.0187 120.321 46.2027 120.406 47.376C120.492 48.5493 120.566 49.744 120.63 50.96C120.673 51.6213 120.886 52.1333 121.27 52.496C121.654 52.8373 122.241 53.0827 123.03 53.232C123.393 53.296 123.66 53.3707 123.83 53.456C124.001 53.5413 124.086 53.6587 124.086 53.808C124.086 53.936 124.001 54.0213 123.83 54.064C123.66 54.128 123.436 54.16 123.158 54.16C122.582 54.16 122.102 54.1387 121.718 54.096C121.356 54.0747 121.004 54.0533 120.662 54.032C120.321 54.0107 119.905 54 119.414 54C118.988 54 118.625 54.0107 118.326 54.032C118.049 54.0533 117.74 54.0747 117.398 54.096C117.078 54.1387 116.63 54.16 116.054 54.16C115.777 54.16 115.553 54.128 115.382 54.064C115.212 54.0213 115.126 53.936 115.126 53.808C115.126 53.6587 115.212 53.5413 115.382 53.456C115.553 53.3493 115.82 53.2747 116.182 53.232C116.801 53.1467 117.228 52.9333 117.462 52.592C117.697 52.2293 117.814 51.6747 117.814 50.928C117.814 49.392 117.793 48.0053 117.75 46.768C117.729 45.5307 117.686 44.3147 117.622 43.12C117.558 41.904 117.494 40.5813 117.43 39.152C117.409 38.9173 117.345 38.8107 117.238 38.832C117.132 38.832 117.025 38.9387 116.918 39.152L109.558 54.16C109.516 54.2667 109.42 54.32 109.27 54.32C109.121 54.3413 109.025 54.2773 108.982 54.128C108.15 51.632 107.254 49.1787 106.294 46.768C105.356 44.336 104.289 41.7227 103.094 38.928C103.052 38.8213 102.977 38.768 102.87 38.768C102.764 38.768 102.7 38.8213 102.678 38.928C102.486 40.4213 102.305 41.7973 102.134 43.056C101.985 44.2933 101.868 45.52 101.782 46.736C101.697 47.952 101.654 49.2853 101.654 50.736C101.654 51.312 101.836 51.8453 102.198 52.336C102.561 52.8053 103.073 53.104 103.734 53.232C104.097 53.296 104.364 53.3707 104.534 53.456C104.705 53.5413 104.79 53.6587 104.79 53.808C104.79 53.936 104.705 54.0213 104.534 54.064C104.364 54.128 104.14 54.16 103.862 54.16C103.286 54.16 102.849 54.1387 102.55 54.096C102.273 54.0747 102.017 54.0533 101.782 54.032C101.569 54.0107 101.26 54 100.854 54C100.47 54 100.172 54.0107 99.9583 54.032C99.7449 54.0533 99.4996 54.0747 99.2223 54.096C98.9449 54.1387 98.5183 54.16 97.9423 54.16ZM136.962 54.608C136.813 54.608 136.738 54.5227 136.738 54.352C136.738 54.1387 136.759 53.8293 136.802 53.424C136.866 52.9973 136.898 52.6453 136.898 52.368C136.898 52.3253 136.898 52.2933 136.898 52.272C136.898 52.2293 136.898 52.1973 136.898 52.176C136.066 52.9867 135.223 53.5733 134.37 53.936C133.538 54.2773 132.621 54.448 131.618 54.448C130.935 54.448 130.317 54.2987 129.762 54C129.207 53.7227 128.77 53.3067 128.45 52.752C128.13 52.176 127.97 51.472 127.97 50.64V44.144C127.97 43.6747 127.863 43.3013 127.65 43.024C127.437 42.7467 127.085 42.512 126.594 42.32C126.487 42.2773 126.391 42.224 126.306 42.16C126.221 42.096 126.178 41.9787 126.178 41.808C126.178 41.616 126.221 41.488 126.306 41.424C126.413 41.36 126.53 41.3173 126.658 41.296C127.383 41.2533 127.938 41.2 128.322 41.136C128.727 41.0507 129.229 40.9333 129.826 40.784C129.89 40.7627 129.933 40.752 129.954 40.752C129.997 40.752 130.039 40.752 130.082 40.752C130.317 40.752 130.423 40.9013 130.402 41.2C130.338 41.6907 130.285 42.1067 130.242 42.448C130.221 42.768 130.21 43.1733 130.21 43.664V49.904C130.21 50.416 130.338 50.896 130.594 51.344C130.85 51.7707 131.181 52.1227 131.586 52.4C132.013 52.6773 132.45 52.816 132.898 52.816C133.453 52.816 133.933 52.784 134.338 52.72C134.765 52.656 135.181 52.4747 135.586 52.176C135.821 52.0053 136.119 51.728 136.482 51.344C136.845 50.96 137.026 50.4373 137.026 49.776V43.92C137.026 43.472 136.887 43.1413 136.61 42.928C136.354 42.6933 136.055 42.5333 135.714 42.448C135.373 42.3627 135.095 42.32 134.882 42.32C134.69 42.32 134.53 42.288 134.402 42.224C134.274 42.1387 134.21 41.9893 134.21 41.776C134.21 41.584 134.274 41.456 134.402 41.392C134.551 41.328 134.711 41.296 134.882 41.296C135.543 41.2747 136.087 41.2533 136.514 41.232C136.962 41.1893 137.357 41.136 137.698 41.072C138.061 40.9867 138.434 40.8907 138.818 40.784C138.861 40.7627 138.914 40.752 138.978 40.752C139.042 40.7307 139.095 40.72 139.138 40.72C139.415 40.72 139.554 40.8373 139.554 41.072C139.554 41.0933 139.543 41.136 139.522 41.2C139.522 41.2427 139.511 41.296 139.49 41.36C139.469 41.424 139.437 41.6053 139.394 41.904C139.373 42.2027 139.341 42.512 139.298 42.832C139.277 43.152 139.266 43.3973 139.266 43.568V50.96C139.266 51.536 139.319 51.952 139.426 52.208C139.554 52.4427 139.693 52.56 139.842 52.56C140.013 52.56 140.258 52.5493 140.578 52.528C140.919 52.4853 141.165 52.464 141.314 52.464C141.421 52.464 141.527 52.4853 141.634 52.528C141.741 52.5707 141.794 52.688 141.794 52.88C141.794 53.0507 141.751 53.168 141.666 53.232C141.581 53.2747 141.474 53.3067 141.346 53.328C140.514 53.4347 139.799 53.5947 139.202 53.808C138.605 54.0213 138.071 54.224 137.602 54.416C137.538 54.4373 137.442 54.4693 137.314 54.512C137.186 54.576 137.069 54.608 136.962 54.608ZM146.733 54.448C146.072 54.448 145.453 54.3413 144.877 54.128C144.301 53.936 143.81 53.6587 143.405 53.296C143.298 53.0613 143.213 52.6667 143.149 52.112C143.106 51.5573 143.074 51.0987 143.053 50.736C143.053 50.544 143.192 50.448 143.469 50.448C143.554 50.448 143.629 50.4693 143.693 50.512C143.778 50.5333 143.832 50.5867 143.853 50.672C144.13 51.7173 144.568 52.464 145.165 52.912C145.784 53.36 146.402 53.584 147.021 53.584C147.64 53.584 148.162 53.3813 148.589 52.976C149.037 52.5493 149.261 52.0267 149.261 51.408C149.261 50.832 149.069 50.3413 148.685 49.936C148.301 49.5093 147.629 48.9973 146.669 48.4C145.944 47.952 145.357 47.5253 144.909 47.12C144.461 46.7147 144.13 46.2987 143.917 45.872C143.725 45.4453 143.629 44.9653 143.629 44.432C143.629 43.7493 143.789 43.1307 144.109 42.576C144.429 42.0213 144.909 41.584 145.549 41.264C146.189 40.9227 146.989 40.752 147.949 40.752C148.589 40.752 149.122 40.816 149.549 40.944C149.976 41.072 150.296 41.2107 150.509 41.36C150.68 41.5947 150.818 41.968 150.925 42.48C151.053 42.9707 151.117 43.44 151.117 43.888C151.117 44.0373 151.01 44.112 150.797 44.112C150.669 44.112 150.541 44.0907 150.413 44.048C150.306 43.984 150.232 43.9093 150.189 43.824C149.912 43.12 149.56 42.5867 149.133 42.224C148.728 41.84 148.216 41.648 147.597 41.648C147.064 41.648 146.584 41.808 146.157 42.128C145.752 42.448 145.549 42.9173 145.549 43.536C145.549 44.0267 145.698 44.464 145.997 44.848C146.317 45.232 146.904 45.6693 147.757 46.16C148.994 46.864 149.912 47.5253 150.509 48.144C151.128 48.7413 151.437 49.5413 151.437 50.544C151.437 51.696 151 52.6347 150.125 53.36C149.25 54.0853 148.12 54.448 146.733 54.448ZM159.285 54.48C158.111 54.48 157.087 54.192 156.213 53.616C155.338 53.04 154.655 52.2293 154.165 51.184C153.674 50.1173 153.429 48.8907 153.429 47.504C153.429 46.2667 153.706 45.1467 154.261 44.144C154.837 43.12 155.594 42.2987 156.533 41.68C157.471 41.0613 158.495 40.752 159.605 40.752C160.458 40.752 161.215 40.9227 161.877 41.264C162.538 41.6053 163.05 42.0853 163.413 42.704C163.797 43.3013 163.989 43.9947 163.989 44.784C163.989 45.4453 163.669 45.776 163.029 45.776H156.277C155.978 45.776 155.765 45.8613 155.637 46.032C155.53 46.1813 155.477 46.4907 155.477 46.96C155.477 47.984 155.701 48.9227 156.149 49.776C156.597 50.608 157.194 51.28 157.941 51.792C158.687 52.2827 159.509 52.528 160.405 52.528C161.045 52.528 161.621 52.4107 162.133 52.176C162.666 51.92 163.135 51.5573 163.541 51.088C163.626 50.9813 163.69 50.9173 163.733 50.896C163.775 50.8533 163.829 50.832 163.893 50.832C164.063 50.832 164.149 50.9387 164.149 51.152C164.149 51.5573 163.957 52.0053 163.573 52.496C163.253 52.9013 162.869 53.2533 162.421 53.552C161.973 53.8507 161.482 54.0747 160.949 54.224C160.415 54.3947 159.861 54.48 159.285 54.48ZM156.341 44.784H159.253C159.765 44.784 160.202 44.7733 160.565 44.752C160.927 44.7307 161.279 44.688 161.621 44.624C161.727 44.6027 161.791 44.5387 161.813 44.432C161.855 44.304 161.877 44.1333 161.877 43.92C161.877 43.3013 161.599 42.7787 161.045 42.352C160.511 41.904 159.871 41.68 159.125 41.68C158.634 41.68 158.143 41.8293 157.653 42.128C157.162 42.4053 156.757 42.7573 156.437 43.184C156.117 43.6107 155.957 44.0373 155.957 44.464C155.957 44.6773 156.085 44.784 156.341 44.784ZM176.65 54.608C176.5 54.608 176.426 54.5227 176.426 54.352C176.426 54.1387 176.447 53.8293 176.49 53.424C176.554 52.9973 176.586 52.6453 176.586 52.368C176.586 52.3253 176.586 52.2933 176.586 52.272C176.586 52.2293 176.586 52.1973 176.586 52.176C175.754 52.9867 174.911 53.5733 174.058 53.936C173.226 54.2773 172.308 54.448 171.306 54.448C170.623 54.448 170.004 54.2987 169.45 54C168.895 53.7227 168.458 53.3067 168.138 52.752C167.818 52.176 167.658 51.472 167.658 50.64V44.144C167.658 43.6747 167.551 43.3013 167.338 43.024C167.124 42.7467 166.772 42.512 166.282 42.32C166.175 42.2773 166.079 42.224 165.993 42.16C165.908 42.096 165.866 41.9787 165.866 41.808C165.866 41.616 165.908 41.488 165.993 41.424C166.1 41.36 166.218 41.3173 166.346 41.296C167.071 41.2533 167.626 41.2 168.01 41.136C168.415 41.0507 168.916 40.9333 169.514 40.784C169.578 40.7627 169.62 40.752 169.641 40.752C169.684 40.752 169.727 40.752 169.77 40.752C170.004 40.752 170.111 40.9013 170.09 41.2C170.026 41.6907 169.972 42.1067 169.93 42.448C169.908 42.768 169.898 43.1733 169.898 43.664V49.904C169.898 50.416 170.026 50.896 170.282 51.344C170.538 51.7707 170.868 52.1227 171.274 52.4C171.7 52.6773 172.138 52.816 172.586 52.816C173.14 52.816 173.62 52.784 174.026 52.72C174.452 52.656 174.868 52.4747 175.274 52.176C175.508 52.0053 175.807 51.728 176.17 51.344C176.532 50.96 176.714 50.4373 176.714 49.776V43.92C176.714 43.472 176.575 43.1413 176.298 42.928C176.042 42.6933 175.743 42.5333 175.402 42.448C175.06 42.3627 174.783 42.32 174.57 42.32C174.378 42.32 174.218 42.288 174.09 42.224C173.962 42.1387 173.898 41.9893 173.898 41.776C173.898 41.584 173.962 41.456 174.09 41.392C174.239 41.328 174.399 41.296 174.57 41.296C175.231 41.2747 175.775 41.2533 176.202 41.232C176.65 41.1893 177.044 41.136 177.386 41.072C177.748 40.9867 178.122 40.8907 178.506 40.784C178.548 40.7627 178.602 40.752 178.666 40.752C178.73 40.7307 178.783 40.72 178.826 40.72C179.103 40.72 179.242 40.8373 179.242 41.072C179.242 41.0933 179.231 41.136 179.21 41.2C179.21 41.2427 179.199 41.296 179.178 41.36C179.156 41.424 179.124 41.6053 179.082 41.904C179.06 42.2027 179.028 42.512 178.986 42.832C178.964 43.152 178.954 43.3973 178.954 43.568V50.96C178.954 51.536 179.007 51.952 179.114 52.208C179.242 52.4427 179.38 52.56 179.53 52.56C179.7 52.56 179.946 52.5493 180.266 52.528C180.607 52.4853 180.852 52.464 181.002 52.464C181.108 52.464 181.215 52.4853 181.322 52.528C181.428 52.5707 181.482 52.688 181.482 52.88C181.482 53.0507 181.439 53.168 181.354 53.232C181.268 53.2747 181.162 53.3067 181.034 53.328C180.202 53.4347 179.487 53.5947 178.89 53.808C178.292 54.0213 177.759 54.224 177.29 54.416C177.226 54.4373 177.13 54.4693 177.002 54.512C176.874 54.576 176.756 54.608 176.65 54.608ZM183.221 54.096C183.05 54.096 182.901 54.0747 182.773 54.032C182.645 53.9893 182.581 53.8933 182.581 53.744C182.581 53.5947 182.645 53.488 182.773 53.424C182.922 53.36 183.103 53.296 183.317 53.232C183.615 53.1253 183.914 53.008 184.213 52.88C184.533 52.7307 184.693 52.4427 184.693 52.016V45.136C184.693 44.56 184.629 44.0587 184.501 43.632C184.373 43.184 184.031 42.9173 183.477 42.832C183.391 42.8107 183.317 42.768 183.253 42.704C183.21 42.64 183.189 42.544 183.189 42.416C183.189 42.2027 183.274 42.0747 183.445 42.032C184.021 41.8827 184.479 41.7333 184.821 41.584C185.162 41.4133 185.461 41.232 185.717 41.04C185.994 40.8267 186.325 40.6027 186.709 40.368C186.751 40.3467 186.794 40.3253 186.837 40.304C186.879 40.2613 186.933 40.24 186.997 40.24C187.125 40.24 187.189 40.3147 187.189 40.464C187.189 40.6133 187.157 40.9227 187.093 41.392C187.05 41.84 187.029 42.2133 187.029 42.512C187.029 42.7253 187.05 42.8533 187.093 42.896H187.157C187.647 42.4267 188.287 41.9573 189.077 41.488C189.887 40.9973 190.911 40.752 192.149 40.752C192.917 40.752 193.557 40.9227 194.069 41.264C194.581 41.584 195.007 42.1493 195.349 42.96H195.445C196.127 42.3413 196.906 41.8187 197.781 41.392C198.655 40.9653 199.615 40.752 200.661 40.752C201.365 40.752 201.951 40.9653 202.421 41.392C202.89 41.8187 203.242 42.3733 203.477 43.056C203.733 43.7387 203.861 44.4533 203.861 45.2V52.016C203.861 52.4427 204.01 52.7307 204.309 52.88C204.607 53.008 204.917 53.1253 205.237 53.232C205.45 53.296 205.621 53.36 205.749 53.424C205.898 53.488 205.973 53.5947 205.973 53.744C205.973 53.872 205.919 53.9573 205.813 54C205.727 54.064 205.567 54.096 205.333 54.096C204.906 54.096 204.575 54.0747 204.341 54.032C204.106 54.0107 203.882 53.9893 203.669 53.968C203.477 53.9467 203.189 53.936 202.805 53.936C202.442 53.936 202.143 53.9467 201.909 53.968C201.674 53.9893 201.429 54.0107 201.173 54.032C200.917 54.0747 200.575 54.096 200.149 54.096C199.957 54.096 199.797 54.064 199.669 54C199.562 53.9573 199.509 53.872 199.509 53.744C199.509 53.5733 199.573 53.456 199.701 53.392C199.85 53.328 200.031 53.2747 200.245 53.232C200.586 53.1467 200.895 53.0293 201.173 52.88C201.471 52.7307 201.621 52.4427 201.621 52.016V45.296C201.621 44.784 201.503 44.304 201.269 43.856C201.034 43.3867 200.725 43.0027 200.341 42.704C199.957 42.4053 199.53 42.256 199.061 42.256C198.527 42.256 198.026 42.32 197.557 42.448C197.109 42.576 196.682 42.8 196.277 43.12C195.679 43.5893 195.381 44.3573 195.381 45.424V52.016C195.381 52.4427 195.541 52.7307 195.861 52.88C196.181 53.0293 196.501 53.1467 196.821 53.232C197.034 53.2747 197.205 53.3387 197.333 53.424C197.482 53.488 197.557 53.5947 197.557 53.744C197.557 53.872 197.503 53.9573 197.397 54C197.29 54.064 197.13 54.096 196.917 54.096C196.49 54.096 196.149 54.0747 195.893 54.032C195.658 54.0107 195.423 53.9893 195.189 53.968C194.975 53.9467 194.677 53.936 194.293 53.936C193.93 53.936 193.631 53.9467 193.397 53.968C193.162 53.9893 192.917 54.0107 192.661 54.032C192.405 54.0747 192.063 54.096 191.637 54.096C191.466 54.096 191.317 54.064 191.189 54C191.061 53.9573 190.997 53.872 190.997 53.744C190.997 53.5733 191.071 53.4667 191.22 53.424C191.391 53.36 191.562 53.296 191.733 53.232C192.053 53.1253 192.362 53.008 192.661 52.88C192.981 52.7307 193.141 52.4427 193.141 52.016V45.296C193.141 44.784 193.023 44.304 192.789 43.856C192.554 43.3867 192.245 43.0027 191.861 42.704C191.477 42.4053 191.05 42.256 190.581 42.256C190.047 42.256 189.546 42.32 189.077 42.448C188.629 42.576 188.202 42.8 187.797 43.12C187.221 43.5467 186.933 44.3147 186.933 45.424V52.016C186.933 52.4427 187.082 52.7307 187.381 52.88C187.679 53.008 187.989 53.1253 188.309 53.232C188.479 53.296 188.639 53.36 188.789 53.424C188.959 53.4667 189.045 53.5733 189.045 53.744C189.045 53.872 188.981 53.9573 188.853 54C188.746 54.064 188.597 54.096 188.405 54.096C187.978 54.096 187.637 54.0747 187.381 54.032C187.146 54.0107 186.922 53.9893 186.709 53.968C186.495 53.9467 186.197 53.936 185.812 53.936C185.45 53.936 185.151 53.9467 184.917 53.968C184.703 53.9893 184.469 54.0107 184.213 54.032C183.978 54.0747 183.647 54.096 183.221 54.096Z" fill="black"/>
<path d="M4.494 21.105C4.312 21.105 4.165 21.084 4.053 21.042C3.941 21.014 3.885 20.958 3.885 20.874C3.885 20.776 3.941 20.699 4.053 20.643C4.165 20.587 4.34 20.538 4.578 20.496C5.11 20.398 5.516 20.23 5.796 19.992C6.076 19.74 6.216 19.362 6.216 18.858V10.71C6.216 10.066 6.202 9.576 6.174 9.24C6.146 8.89 6.097 8.645 6.027 8.505C5.971 8.365 5.887 8.288 5.775 8.274C5.579 8.232 5.369 8.211 5.145 8.211C4.935 8.197 4.648 8.19 4.284 8.19H3.297C2.961 8.19 2.625 8.26 2.289 8.4C1.967 8.526 1.729 8.729 1.575 9.009C1.533 9.079 1.463 9.184 1.365 9.324C1.267 9.45 1.162 9.562 1.05 9.66C0.938 9.758 0.826 9.807 0.714 9.807C0.658 9.807 0.616 9.779 0.588 9.723C0.574 9.667 0.567 9.604 0.567 9.534C0.567 9.394 0.602 9.254 0.672 9.114C0.868 8.708 1.008 8.351 1.092 8.043C1.19 7.721 1.267 7.343 1.323 6.909C1.351 6.671 1.4 6.531 1.47 6.489C1.554 6.447 1.624 6.426 1.68 6.426C1.736 6.426 1.82 6.51 1.932 6.678C2.058 6.846 2.149 6.986 2.205 7.098C2.289 7.238 2.478 7.343 2.772 7.413C3.08 7.483 3.381 7.518 3.675 7.518H11.067C11.557 7.518 11.956 7.49 12.264 7.434C12.572 7.378 12.838 7.301 13.062 7.203C13.23 7.119 13.363 7.028 13.461 6.93C13.573 6.832 13.713 6.783 13.881 6.783C13.923 6.783 13.958 6.839 13.986 6.951C14.014 7.049 14.028 7.154 14.028 7.266C14.028 7.336 14.014 7.434 13.986 7.56C13.972 7.686 13.958 7.784 13.944 7.854C13.902 8.106 13.86 8.288 13.818 8.4C13.79 8.512 13.769 8.61 13.755 8.694C13.741 8.778 13.734 8.911 13.734 9.093V9.345C13.734 9.471 13.706 9.618 13.65 9.786C13.594 9.94 13.51 10.017 13.398 10.017C13.3 10.017 13.223 9.94 13.167 9.786C13.111 9.632 13.055 9.422 12.999 9.156C12.943 8.862 12.775 8.631 12.495 8.463C12.215 8.281 11.739 8.19 11.067 8.19H8.946C8.638 8.19 8.407 8.232 8.253 8.316C8.099 8.4 8.001 8.61 7.959 8.946C7.917 9.282 7.896 9.835 7.896 10.605V18.858C7.896 19.362 8.043 19.74 8.337 19.992C8.631 20.23 9.037 20.398 9.555 20.496C9.793 20.538 9.968 20.587 10.08 20.643C10.192 20.699 10.248 20.776 10.248 20.874C10.248 20.958 10.192 21.014 10.08 21.042C9.968 21.084 9.821 21.105 9.639 21.105C9.261 21.105 8.946 21.091 8.694 21.063C8.456 21.049 8.225 21.035 8.001 21.021C7.777 21.007 7.504 21 7.182 21C6.832 21 6.524 21.007 6.258 21.021C6.006 21.035 5.74 21.049 5.46 21.063C5.194 21.091 4.872 21.105 4.494 21.105ZM13.0056 21.063C12.8656 21.063 12.7606 21.042 12.6906 21C12.6206 20.972 12.5856 20.916 12.5856 20.832C12.5856 20.72 12.6276 20.65 12.7116 20.622C12.7956 20.58 12.9146 20.538 13.0686 20.496C13.3346 20.426 13.5306 20.328 13.6566 20.202C13.7966 20.062 13.8666 19.894 13.8666 19.698V15.183C13.8666 14.805 13.8106 14.476 13.6986 14.196C13.5866 13.916 13.3556 13.741 13.0056 13.671C12.9496 13.657 12.9006 13.622 12.8586 13.566C12.8166 13.51 12.7956 13.454 12.7956 13.398C12.7956 13.258 12.8586 13.174 12.9846 13.146C13.3486 13.034 13.7266 12.873 14.1186 12.663C14.5246 12.439 14.8396 12.257 15.0636 12.117C15.1476 12.061 15.2106 12.026 15.2526 12.012C15.3086 11.984 15.3506 11.97 15.3786 11.97C15.4486 11.97 15.4836 12.019 15.4836 12.117C15.4836 12.159 15.4766 12.264 15.4626 12.432C15.4626 12.6 15.4556 12.796 15.4416 13.02C15.4416 13.244 15.4346 13.468 15.4206 13.692C15.4206 13.72 15.4346 13.734 15.4626 13.734C15.6866 13.454 15.9316 13.209 16.1976 12.999C16.4776 12.789 16.7576 12.621 17.0376 12.495C17.3316 12.369 17.6116 12.306 17.8776 12.306C18.1716 12.306 18.4096 12.369 18.5916 12.495C18.7876 12.621 18.8856 12.782 18.8856 12.978C18.8856 13.118 18.8436 13.272 18.7596 13.44C18.6896 13.608 18.5916 13.755 18.4656 13.881C18.3396 14.007 18.2066 14.07 18.0666 14.07C17.9826 14.07 17.8916 14.056 17.7936 14.028C17.6956 13.986 17.5906 13.937 17.4786 13.881C17.3666 13.839 17.2546 13.797 17.1426 13.755C17.0306 13.713 16.9186 13.692 16.8066 13.692C16.4706 13.692 16.1416 13.811 15.8196 14.049C15.5116 14.287 15.3576 14.756 15.3576 15.456V19.698C15.3576 19.88 15.4556 20.034 15.6516 20.16C15.8476 20.272 16.1206 20.384 16.4706 20.496C16.6246 20.538 16.7436 20.58 16.8276 20.622C16.9116 20.664 16.9536 20.734 16.9536 20.832C16.9536 20.986 16.8136 21.063 16.5336 21.063C16.1136 21.063 15.7916 21.042 15.5676 21C15.3576 20.972 15.0706 20.958 14.7066 20.958C14.4686 20.958 14.2726 20.965 14.1186 20.979C13.9786 20.993 13.8246 21.007 13.6566 21.021C13.5026 21.049 13.2856 21.063 13.0056 21.063ZM23.9042 21.294C23.1202 21.294 22.4132 21.112 21.7832 20.748C21.1532 20.384 20.6492 19.887 20.2712 19.257C19.9072 18.613 19.7252 17.885 19.7252 17.073C19.7252 16.485 19.8372 15.911 20.0612 15.351C20.2992 14.791 20.6282 14.28 21.0482 13.818C21.4682 13.356 21.9582 12.992 22.5182 12.726C23.0782 12.446 23.6802 12.306 24.3242 12.306C25.1362 12.306 25.8642 12.502 26.5082 12.894C27.1662 13.286 27.6842 13.804 28.0622 14.448C28.4542 15.078 28.6502 15.771 28.6502 16.527C28.6502 17.339 28.4682 18.109 28.1042 18.837C27.7542 19.565 27.2292 20.16 26.5292 20.622C25.8292 21.07 24.9542 21.294 23.9042 21.294ZM24.3452 20.664C24.8212 20.664 25.2482 20.573 25.6262 20.391C26.0042 20.209 26.2982 19.915 26.5082 19.509C26.6762 19.187 26.7882 18.795 26.8442 18.333C26.9002 17.871 26.9282 17.437 26.9282 17.031C26.9282 16.359 26.8022 15.715 26.5502 15.099C26.3122 14.469 25.9692 13.958 25.5212 13.566C25.0872 13.16 24.5692 12.957 23.9672 12.957C23.5892 12.957 23.2462 13.02 22.9382 13.146C22.6442 13.258 22.3712 13.475 22.1192 13.797C21.8392 14.147 21.6572 14.574 21.5732 15.078C21.4892 15.582 21.4472 16.086 21.4472 16.59C21.4472 17.276 21.5732 17.934 21.8252 18.564C22.0772 19.18 22.4202 19.684 22.8542 20.076C23.2882 20.468 23.7852 20.664 24.3452 20.664ZM30.3117 21.063C30.1857 21.063 30.0807 21.042 29.9967 21C29.9267 20.972 29.8917 20.916 29.8917 20.832C29.8917 20.72 29.9337 20.65 30.0177 20.622C30.1017 20.58 30.2207 20.538 30.3747 20.496C30.5847 20.44 30.7877 20.363 30.9837 20.265C31.1797 20.167 31.2777 19.978 31.2777 19.698V15.183C31.2777 14.805 31.2357 14.483 31.1517 14.217C31.0817 13.951 30.8647 13.769 30.5007 13.671C30.4447 13.643 30.3957 13.615 30.3537 13.587C30.3117 13.545 30.2907 13.482 30.2907 13.398C30.2907 13.244 30.3537 13.16 30.4797 13.146C30.9697 13.02 31.3687 12.866 31.6767 12.684C31.9847 12.502 32.2857 12.299 32.5797 12.075C32.6217 12.047 32.6567 12.026 32.6847 12.012C32.7267 11.984 32.7687 11.97 32.8107 11.97C32.8387 11.97 32.8597 11.984 32.8737 12.012C32.9017 12.04 32.9157 12.075 32.9157 12.117C32.9157 12.215 32.8947 12.418 32.8527 12.726C32.8247 13.02 32.8107 13.265 32.8107 13.461C32.8107 13.517 32.8107 13.573 32.8107 13.629C32.8247 13.671 32.8387 13.699 32.8527 13.713C33.3427 13.251 33.8607 12.901 34.4067 12.663C34.9667 12.425 35.5757 12.306 36.2337 12.306C36.9197 12.306 37.4867 12.586 37.9347 13.146C38.3827 13.706 38.6067 14.399 38.6067 15.225V19.698C38.6067 19.978 38.7047 20.167 38.9007 20.265C39.0967 20.349 39.2997 20.426 39.5097 20.496C39.6217 20.538 39.7267 20.587 39.8247 20.643C39.9367 20.685 39.9927 20.762 39.9927 20.874C39.9927 20.958 39.9437 21.007 39.8457 21.021C39.7477 21.049 39.6567 21.063 39.5727 21.063C39.2927 21.063 39.0757 21.049 38.9217 21.021C38.7677 21.007 38.6207 20.993 38.4807 20.979C38.3407 20.965 38.1447 20.958 37.8927 20.958C37.6547 20.958 37.4587 20.965 37.3047 20.979C37.1507 20.993 36.9897 21.007 36.8217 21.021C36.6677 21.049 36.4507 21.063 36.1707 21.063C36.1007 21.063 36.0097 21.049 35.8977 21.021C35.7997 21.007 35.7507 20.958 35.7507 20.874C35.7507 20.762 35.7997 20.685 35.8977 20.643C36.0097 20.587 36.1217 20.538 36.2337 20.496C36.4437 20.426 36.6467 20.349 36.8427 20.265C37.0387 20.167 37.1367 19.978 37.1367 19.698V15.288C37.1367 14.672 36.9617 14.196 36.6117 13.86C36.2757 13.51 35.8207 13.328 35.2467 13.314C34.7427 13.314 34.3017 13.398 33.9237 13.566C33.5457 13.72 33.2097 13.916 32.9157 14.154C32.8597 14.21 32.8177 14.287 32.7897 14.385C32.7617 14.469 32.7477 14.553 32.7477 14.637V19.698C32.7477 19.978 32.8457 20.167 33.0417 20.265C33.2377 20.363 33.4407 20.44 33.6507 20.496C33.9727 20.58 34.1337 20.692 34.1337 20.832C34.1337 20.916 34.0987 20.972 34.0287 21C33.9587 21.042 33.8537 21.063 33.7137 21.063C33.4337 21.063 33.2097 21.049 33.0417 21.021C32.8877 21.007 32.7407 20.993 32.6007 20.979C32.4607 20.965 32.2647 20.958 32.0127 20.958C31.7747 20.958 31.5787 20.965 31.4247 20.979C31.2847 20.993 31.1307 21.007 30.9627 21.021C30.8087 21.049 30.5917 21.063 30.3117 21.063ZM47.9794 21.399C47.9514 21.399 47.9024 21.371 47.8324 21.315C47.7764 21.259 47.7484 21.217 47.7484 21.189C47.7484 21.049 47.7624 20.853 47.7904 20.601C47.8324 20.335 47.8534 20.111 47.8534 19.929V19.803C47.6434 20.125 47.3074 20.454 46.8454 20.79C46.3834 21.126 45.8024 21.294 45.1024 21.294C44.3044 21.294 43.6114 21.084 43.0234 20.664C42.4494 20.244 42.0014 19.705 41.6794 19.047C41.3714 18.389 41.2174 17.71 41.2174 17.01C41.2174 16.198 41.4064 15.435 41.7844 14.721C42.1624 14.007 42.7014 13.426 43.4014 12.978C44.1154 12.53 44.9624 12.306 45.9424 12.306C46.2224 12.306 46.5024 12.334 46.7824 12.39C47.0764 12.432 47.3004 12.481 47.4544 12.537C47.5804 12.579 47.6714 12.6 47.7274 12.6C47.8254 12.6 47.8744 12.432 47.8744 12.096V9.114C47.8744 8.54 47.7834 8.155 47.6014 7.959C47.4194 7.763 47.1604 7.637 46.8244 7.581C46.6984 7.553 46.6354 7.462 46.6354 7.308C46.6354 7.182 46.6914 7.098 46.8034 7.056C47.4194 6.902 47.9024 6.755 48.2524 6.615C48.6024 6.475 48.8754 6.363 49.0714 6.279C49.1274 6.251 49.1764 6.237 49.2184 6.237C49.2744 6.223 49.3164 6.216 49.3444 6.216C49.4284 6.216 49.4774 6.258 49.4914 6.342C49.4914 6.426 49.4774 6.573 49.4494 6.783C49.4354 6.979 49.4144 7.273 49.3864 7.665C49.3584 8.057 49.3444 8.568 49.3444 9.198V18.69C49.3444 19.166 49.3794 19.516 49.4494 19.74C49.5194 19.95 49.6314 20.055 49.7854 20.055C49.8554 20.055 49.9744 20.048 50.1424 20.034C50.3244 20.02 50.5064 20.006 50.6884 19.992C50.9404 19.978 51.0664 20.041 51.0664 20.181C51.0664 20.279 51.0314 20.37 50.9614 20.454C50.9054 20.524 50.8424 20.559 50.7724 20.559C50.3804 20.615 49.9954 20.699 49.6174 20.811C49.2394 20.909 48.8054 21.063 48.3154 21.273C48.2034 21.329 48.1264 21.364 48.0844 21.378C48.0564 21.392 48.0214 21.399 47.9794 21.399ZM45.8584 20.202C46.2224 20.202 46.5794 20.111 46.9294 19.929C47.2794 19.733 47.5874 19.481 47.8534 19.173L47.8744 15.393C47.8744 15.015 47.7624 14.644 47.5384 14.28C47.3284 13.916 47.0274 13.622 46.6354 13.398C46.2574 13.16 45.8094 13.041 45.2914 13.041C44.9694 13.041 44.6054 13.139 44.1994 13.335C43.7934 13.531 43.4434 13.881 43.1494 14.385C42.8554 14.875 42.7084 15.589 42.7084 16.527C42.7084 17.325 42.8274 17.969 43.0654 18.459C43.3034 18.935 43.5904 19.299 43.9264 19.551C44.2764 19.803 44.6264 19.978 44.9764 20.076C45.3404 20.16 45.6344 20.202 45.8584 20.202ZM51.9245 21.063C51.6445 21.063 51.5045 20.986 51.5045 20.832C51.5045 20.706 51.6655 20.594 51.9875 20.496C52.1975 20.426 52.3935 20.335 52.5755 20.223C52.7715 20.111 52.8765 19.915 52.8905 19.635V9.114C52.8905 8.736 52.8275 8.407 52.7015 8.127C52.5755 7.833 52.3305 7.658 51.9665 7.602C51.8405 7.574 51.7775 7.476 51.7775 7.308C51.7775 7.182 51.8335 7.098 51.9455 7.056C52.1415 6.986 52.3725 6.909 52.6385 6.825C52.9185 6.741 53.2055 6.65 53.4995 6.552C53.7935 6.44 54.0525 6.335 54.2765 6.237C54.3325 6.209 54.3745 6.195 54.4025 6.195C54.4445 6.195 54.4795 6.209 54.5075 6.237C54.5355 6.265 54.5495 6.3 54.5495 6.342C54.5495 6.426 54.5285 6.545 54.4865 6.699C54.4585 6.853 54.4305 7.119 54.4025 7.497C54.3745 7.875 54.3605 8.442 54.3605 9.198V12.852C54.3605 13.076 54.3675 13.237 54.3815 13.335C54.4095 13.433 54.4515 13.531 54.5075 13.629C54.7315 13.461 55.0045 13.279 55.3265 13.083C55.6625 12.873 56.0335 12.691 56.4395 12.537C56.8455 12.383 57.2655 12.306 57.6995 12.306C58.3855 12.306 58.9525 12.579 59.4005 13.125C59.8625 13.657 60.0935 14.336 60.0935 15.162V19.572C60.0935 19.852 60.1845 20.062 60.3665 20.202C60.5485 20.328 60.7445 20.426 60.9545 20.496C61.1085 20.538 61.2275 20.587 61.3115 20.643C61.3955 20.685 61.4375 20.748 61.4375 20.832C61.4375 20.986 61.2975 21.063 61.0175 21.063C60.7375 21.063 60.5205 21.049 60.3665 21.021C60.2265 21.007 60.0865 20.993 59.9465 20.979C59.8205 20.965 59.6315 20.958 59.3795 20.958C59.1415 20.958 58.9525 20.965 58.8125 20.979C58.6725 20.993 58.5255 21.007 58.3715 21.021C58.2315 21.049 58.0215 21.063 57.7415 21.063C57.4615 21.063 57.3215 20.986 57.3215 20.832C57.3215 20.734 57.3635 20.671 57.4475 20.643C57.5315 20.601 57.6505 20.552 57.8045 20.496C58.0145 20.426 58.2035 20.328 58.3715 20.202C58.5395 20.062 58.6235 19.852 58.6235 19.572V15.288C58.6235 14.938 58.5185 14.623 58.3085 14.343C58.1125 14.049 57.8675 13.818 57.5735 13.65C57.2795 13.482 56.9785 13.398 56.6705 13.398C56.4045 13.398 56.0965 13.44 55.7465 13.524C55.3965 13.594 55.1235 13.706 54.9275 13.86C54.7035 14.042 54.5495 14.231 54.4655 14.427C54.3955 14.623 54.3605 14.938 54.3605 15.372V19.635C54.3745 19.915 54.4585 20.111 54.6125 20.223C54.7805 20.335 54.9695 20.426 55.1795 20.496C55.3335 20.538 55.4455 20.587 55.5155 20.643C55.5995 20.685 55.6415 20.748 55.6415 20.832C55.6415 20.986 55.5015 21.063 55.2215 21.063C54.9415 21.063 54.7315 21.049 54.5915 21.021C54.4515 21.007 54.3185 20.993 54.1925 20.979C54.0665 20.965 53.8775 20.958 53.6255 20.958C53.3875 20.958 53.1915 20.965 53.0375 20.979C52.8975 20.993 52.7435 21.007 52.5755 21.021C52.4215 21.049 52.2045 21.063 51.9245 21.063ZM66.3861 21.315C65.6161 21.315 64.9441 21.126 64.3701 20.748C63.7961 20.37 63.3481 19.838 63.0261 19.152C62.7041 18.452 62.5431 17.647 62.5431 16.737C62.5431 15.925 62.7251 15.19 63.0891 14.532C63.4671 13.86 63.9641 13.321 64.5801 12.915C65.1961 12.509 65.8681 12.306 66.5961 12.306C67.1561 12.306 67.6531 12.418 68.0871 12.642C68.5211 12.866 68.8571 13.181 69.0951 13.587C69.3471 13.979 69.4731 14.434 69.4731 14.952C69.4731 15.386 69.2631 15.603 68.8431 15.603H64.4121C64.2161 15.603 64.0761 15.659 63.9921 15.771C63.9221 15.869 63.8871 16.072 63.8871 16.38C63.8871 17.052 64.0341 17.668 64.3281 18.228C64.6221 18.774 65.0141 19.215 65.5041 19.551C65.9941 19.873 66.5331 20.034 67.1211 20.034C67.5411 20.034 67.9191 19.957 68.2551 19.803C68.6051 19.635 68.9131 19.397 69.1791 19.089C69.2351 19.019 69.2771 18.977 69.3051 18.963C69.3331 18.935 69.3681 18.921 69.4101 18.921C69.5221 18.921 69.5781 18.991 69.5781 19.131C69.5781 19.397 69.4521 19.691 69.2001 20.013C68.9901 20.279 68.7381 20.51 68.4441 20.706C68.1501 20.902 67.8281 21.049 67.4781 21.147C67.1281 21.259 66.7641 21.315 66.3861 21.315ZM64.4541 14.952H66.3651C66.7011 14.952 66.9881 14.945 67.2261 14.931C67.4641 14.917 67.6951 14.889 67.9191 14.847C67.9891 14.833 68.0311 14.791 68.0451 14.721C68.0731 14.637 68.0871 14.525 68.0871 14.385C68.0871 13.979 67.9051 13.636 67.5411 13.356C67.1911 13.062 66.7711 12.915 66.2811 12.915C65.9591 12.915 65.6371 13.013 65.3151 13.209C64.9931 13.391 64.7271 13.622 64.5171 13.902C64.3071 14.182 64.2021 14.462 64.2021 14.742C64.2021 14.882 64.2861 14.952 64.4541 14.952ZM71.0197 21.063C70.8937 21.063 70.7887 21.042 70.7047 21C70.6347 20.972 70.5997 20.916 70.5997 20.832C70.5997 20.72 70.6487 20.643 70.7467 20.601C70.8587 20.559 70.9707 20.524 71.0827 20.496C71.3767 20.426 71.6007 20.342 71.7547 20.244C71.9087 20.132 71.9857 19.95 71.9857 19.698V15.141C71.9857 14.763 71.9157 14.427 71.7757 14.133C71.6497 13.839 71.4047 13.664 71.0407 13.608C70.9707 13.594 70.9147 13.566 70.8727 13.524C70.8447 13.482 70.8307 13.419 70.8307 13.335C70.8307 13.181 70.8937 13.097 71.0197 13.083C71.5797 12.957 72.0417 12.789 72.4057 12.579C72.7697 12.355 73.0427 12.173 73.2247 12.033C73.3507 11.935 73.4487 11.886 73.5187 11.886C73.6027 11.886 73.6447 11.921 73.6447 11.991C73.6447 12.103 73.6237 12.327 73.5817 12.663C73.5537 12.985 73.5257 13.349 73.4977 13.755C73.4697 14.147 73.4557 14.504 73.4557 14.826V19.698C73.4557 19.936 73.5327 20.111 73.6867 20.223C73.8547 20.335 74.0787 20.426 74.3587 20.496C74.4707 20.524 74.5757 20.559 74.6737 20.601C74.7857 20.643 74.8417 20.72 74.8417 20.832C74.8417 20.986 74.7017 21.063 74.4217 21.063C74.1557 21.063 73.9387 21.049 73.7707 21.021C73.6167 21.007 73.4627 20.993 73.3087 20.979C73.1687 20.965 72.9727 20.958 72.7207 20.958C72.4827 20.958 72.2867 20.965 72.1327 20.979C71.9787 20.993 71.8247 21.007 71.6707 21.021C71.5167 21.049 71.2997 21.063 71.0197 21.063ZM72.6997 10.164C72.4057 10.164 72.1537 10.066 71.9437 9.87C71.7477 9.66 71.6497 9.408 71.6497 9.114C71.6497 8.806 71.7477 8.554 71.9437 8.358C72.1537 8.148 72.4057 8.043 72.6997 8.043C73.0077 8.043 73.2597 8.148 73.4557 8.358C73.6657 8.554 73.7707 8.806 73.7707 9.114C73.7707 9.408 73.6657 9.66 73.4557 9.87C73.2597 10.066 73.0077 10.164 72.6997 10.164ZM76.1672 21.063C76.0552 21.063 75.9572 21.049 75.8732 21.021C75.7892 20.993 75.7472 20.93 75.7472 20.832C75.7472 20.734 75.7892 20.664 75.8732 20.622C75.9712 20.58 76.0902 20.538 76.2302 20.496C76.4262 20.426 76.6222 20.349 76.8182 20.265C77.0282 20.167 77.1332 19.978 77.1332 19.698V15.183C77.1332 14.805 77.0912 14.476 77.0072 14.196C76.9232 13.902 76.6992 13.727 76.3352 13.671C76.2792 13.657 76.2302 13.629 76.1882 13.587C76.1602 13.545 76.1462 13.482 76.1462 13.398C76.1462 13.258 76.2022 13.174 76.3142 13.146C76.6922 13.048 76.9932 12.95 77.2172 12.852C77.4412 12.74 77.6372 12.621 77.8052 12.495C77.9872 12.355 78.2042 12.208 78.4562 12.054C78.4842 12.04 78.5122 12.026 78.5402 12.012C78.5682 11.984 78.6032 11.97 78.6452 11.97C78.7292 11.97 78.7712 12.019 78.7712 12.117C78.7712 12.215 78.7502 12.418 78.7082 12.726C78.6802 13.02 78.6662 13.265 78.6662 13.461C78.6662 13.601 78.6802 13.685 78.7082 13.713H78.7502C79.0722 13.405 79.4922 13.097 80.0102 12.789C80.5422 12.467 81.2142 12.306 82.0262 12.306C82.5302 12.306 82.9502 12.418 83.2862 12.642C83.6222 12.852 83.9022 13.223 84.1262 13.755H84.1892C84.6372 13.349 85.1482 13.006 85.7222 12.726C86.2962 12.446 86.9262 12.306 87.6122 12.306C88.0742 12.306 88.4592 12.446 88.7672 12.726C89.0752 13.006 89.3062 13.37 89.4602 13.818C89.6282 14.266 89.7122 14.735 89.7122 15.225V19.698C89.7122 19.978 89.8102 20.167 90.0062 20.265C90.2022 20.349 90.4052 20.426 90.6152 20.496C90.7552 20.538 90.8672 20.58 90.9512 20.622C91.0492 20.664 91.0982 20.734 91.0982 20.832C91.0982 20.916 91.0632 20.972 90.9932 21C90.9372 21.042 90.8322 21.063 90.6782 21.063C90.3982 21.063 90.1812 21.049 90.0272 21.021C89.8732 21.007 89.7262 20.993 89.5862 20.979C89.4602 20.965 89.2712 20.958 89.0192 20.958C88.7812 20.958 88.5852 20.965 88.4312 20.979C88.2772 20.993 88.1162 21.007 87.9482 21.021C87.7802 21.049 87.5562 21.063 87.2762 21.063C87.1502 21.063 87.0452 21.042 86.9612 21C86.8912 20.972 86.8562 20.916 86.8562 20.832C86.8562 20.72 86.8982 20.643 86.9822 20.601C87.0802 20.559 87.1992 20.524 87.3392 20.496C87.5632 20.44 87.7662 20.363 87.9482 20.265C88.1442 20.167 88.2422 19.978 88.2422 19.698V15.288C88.2422 14.952 88.1652 14.637 88.0112 14.343C87.8572 14.035 87.6542 13.783 87.4022 13.587C87.1502 13.391 86.8702 13.293 86.5622 13.293C86.2122 13.293 85.8832 13.335 85.5752 13.419C85.2812 13.503 85.0012 13.65 84.7352 13.86C84.3432 14.168 84.1472 14.672 84.1472 15.372V19.698C84.1472 19.978 84.2522 20.167 84.4622 20.265C84.6722 20.363 84.8822 20.44 85.0922 20.496C85.2322 20.524 85.3442 20.566 85.4282 20.622C85.5262 20.664 85.5752 20.734 85.5752 20.832C85.5752 20.916 85.5402 20.972 85.4702 21C85.4002 21.042 85.2952 21.063 85.1552 21.063C84.8752 21.063 84.6512 21.049 84.4832 21.021C84.3292 21.007 84.1752 20.993 84.0212 20.979C83.8812 20.965 83.6852 20.958 83.4332 20.958C83.1952 20.958 82.9992 20.965 82.8452 20.979C82.6912 20.993 82.5302 21.007 82.3622 21.021C82.1942 21.049 81.9702 21.063 81.6902 21.063C81.5782 21.063 81.4802 21.042 81.3962 21C81.3122 20.972 81.2702 20.916 81.2702 20.832C81.2702 20.72 81.3192 20.65 81.4172 20.622C81.5292 20.58 81.6412 20.538 81.7532 20.496C81.9632 20.426 82.1662 20.349 82.3622 20.265C82.5722 20.167 82.6772 19.978 82.6772 19.698V15.288C82.6772 14.952 82.6002 14.637 82.4462 14.343C82.2922 14.035 82.0892 13.783 81.8372 13.587C81.5852 13.391 81.3052 13.293 80.9972 13.293C80.6472 13.293 80.3182 13.335 80.0102 13.419C79.7162 13.503 79.4362 13.65 79.1702 13.86C78.7922 14.14 78.6032 14.644 78.6032 15.372V19.698C78.6032 19.978 78.7012 20.167 78.8972 20.265C79.0932 20.349 79.2962 20.426 79.5062 20.496C79.6182 20.538 79.7232 20.58 79.8212 20.622C79.9332 20.65 79.9892 20.72 79.9892 20.832C79.9892 20.916 79.9472 20.972 79.8632 21C79.7932 21.042 79.6952 21.063 79.5692 21.063C79.2892 21.063 79.0652 21.049 78.8972 21.021C78.7432 21.007 78.5962 20.993 78.4562 20.979C78.3162 20.965 78.1202 20.958 77.8682 20.958C77.6302 20.958 77.4342 20.965 77.2802 20.979C77.1402 20.993 76.9862 21.007 76.8182 21.021C76.6642 21.049 76.4472 21.063 76.1672 21.063ZM104.339 21.315C103.359 21.315 102.414 21.147 101.504 20.811C100.594 20.475 99.782 19.999 99.068 19.383C98.354 18.753 97.787 18.004 97.367 17.136C96.961 16.254 96.758 15.281 96.758 14.217C96.758 13.195 96.975 12.25 97.409 11.382C97.843 10.514 98.438 9.758 99.194 9.114C99.95 8.47 100.811 7.973 101.777 7.623C102.757 7.259 103.786 7.077 104.864 7.077C105.41 7.077 105.872 7.098 106.25 7.14C106.628 7.182 106.992 7.245 107.342 7.329C107.706 7.399 108.126 7.497 108.602 7.623C108.812 7.679 108.959 7.763 109.043 7.875C109.141 7.987 109.197 8.141 109.211 8.337C109.239 8.659 109.274 9.009 109.316 9.387C109.358 9.751 109.386 10.206 109.4 10.752C109.414 10.85 109.365 10.934 109.253 11.004C109.155 11.06 109.043 11.074 108.917 11.046C108.805 11.018 108.728 10.927 108.686 10.773C108.546 10.241 108.385 9.786 108.203 9.408C108.021 9.016 107.748 8.694 107.384 8.442C107.034 8.204 106.607 8.029 106.103 7.917C105.613 7.791 105.081 7.728 104.507 7.728C103.695 7.728 102.939 7.896 102.239 8.232C101.553 8.554 100.958 9.002 100.454 9.576C99.964 10.136 99.579 10.773 99.299 11.487C99.019 12.201 98.879 12.943 98.879 13.713C98.879 14.567 99.012 15.407 99.278 16.233C99.558 17.059 99.95 17.808 100.454 18.48C100.972 19.138 101.581 19.67 102.281 20.076C102.995 20.468 103.786 20.664 104.654 20.664C105.662 20.664 106.495 20.433 107.153 19.971C107.811 19.509 108.371 18.865 108.833 18.039C108.931 17.857 109.071 17.766 109.253 17.766C109.449 17.766 109.547 17.878 109.547 18.102C109.547 18.214 109.519 18.396 109.463 18.648C109.407 18.886 109.33 19.145 109.232 19.425C109.148 19.691 109.064 19.929 108.98 20.139C108.882 20.335 108.798 20.461 108.728 20.517C108.672 20.573 108.532 20.636 108.308 20.706C107.79 20.916 107.167 21.07 106.439 21.168C105.725 21.266 105.025 21.315 104.339 21.315ZM115.615 21.294C114.831 21.294 114.124 21.112 113.494 20.748C112.864 20.384 112.36 19.887 111.982 19.257C111.618 18.613 111.436 17.885 111.436 17.073C111.436 16.485 111.548 15.911 111.772 15.351C112.01 14.791 112.339 14.28 112.759 13.818C113.179 13.356 113.669 12.992 114.229 12.726C114.789 12.446 115.391 12.306 116.035 12.306C116.847 12.306 117.575 12.502 118.219 12.894C118.877 13.286 119.395 13.804 119.773 14.448C120.165 15.078 120.361 15.771 120.361 16.527C120.361 17.339 120.179 18.109 119.815 18.837C119.465 19.565 118.94 20.16 118.24 20.622C117.54 21.07 116.665 21.294 115.615 21.294ZM116.056 20.664C116.532 20.664 116.959 20.573 117.337 20.391C117.715 20.209 118.009 19.915 118.219 19.509C118.387 19.187 118.499 18.795 118.555 18.333C118.611 17.871 118.639 17.437 118.639 17.031C118.639 16.359 118.513 15.715 118.261 15.099C118.023 14.469 117.68 13.958 117.232 13.566C116.798 13.16 116.28 12.957 115.678 12.957C115.3 12.957 114.957 13.02 114.649 13.146C114.355 13.258 114.082 13.475 113.83 13.797C113.55 14.147 113.368 14.574 113.284 15.078C113.2 15.582 113.158 16.086 113.158 16.59C113.158 17.276 113.284 17.934 113.536 18.564C113.788 19.18 114.131 19.684 114.565 20.076C114.999 20.468 115.496 20.664 116.056 20.664ZM122.023 21.063C121.911 21.063 121.813 21.049 121.729 21.021C121.645 20.993 121.603 20.93 121.603 20.832C121.603 20.734 121.645 20.664 121.729 20.622C121.827 20.58 121.946 20.538 122.086 20.496C122.282 20.426 122.478 20.349 122.674 20.265C122.884 20.167 122.989 19.978 122.989 19.698V15.183C122.989 14.805 122.947 14.476 122.863 14.196C122.779 13.902 122.555 13.727 122.191 13.671C122.135 13.657 122.086 13.629 122.044 13.587C122.016 13.545 122.002 13.482 122.002 13.398C122.002 13.258 122.058 13.174 122.17 13.146C122.548 13.048 122.849 12.95 123.073 12.852C123.297 12.74 123.493 12.621 123.661 12.495C123.843 12.355 124.06 12.208 124.312 12.054C124.34 12.04 124.368 12.026 124.396 12.012C124.424 11.984 124.459 11.97 124.501 11.97C124.585 11.97 124.627 12.019 124.627 12.117C124.627 12.215 124.606 12.418 124.564 12.726C124.536 13.02 124.522 13.265 124.522 13.461C124.522 13.601 124.536 13.685 124.564 13.713H124.606C124.928 13.405 125.348 13.097 125.866 12.789C126.398 12.467 127.07 12.306 127.882 12.306C128.386 12.306 128.806 12.418 129.142 12.642C129.478 12.852 129.758 13.223 129.982 13.755H130.045C130.493 13.349 131.004 13.006 131.578 12.726C132.152 12.446 132.782 12.306 133.468 12.306C133.93 12.306 134.315 12.446 134.623 12.726C134.931 13.006 135.162 13.37 135.316 13.818C135.484 14.266 135.568 14.735 135.568 15.225V19.698C135.568 19.978 135.666 20.167 135.862 20.265C136.058 20.349 136.261 20.426 136.471 20.496C136.611 20.538 136.723 20.58 136.807 20.622C136.905 20.664 136.954 20.734 136.954 20.832C136.954 20.916 136.919 20.972 136.849 21C136.793 21.042 136.688 21.063 136.534 21.063C136.254 21.063 136.037 21.049 135.883 21.021C135.729 21.007 135.582 20.993 135.442 20.979C135.316 20.965 135.127 20.958 134.875 20.958C134.637 20.958 134.441 20.965 134.287 20.979C134.133 20.993 133.972 21.007 133.804 21.021C133.636 21.049 133.412 21.063 133.132 21.063C133.006 21.063 132.901 21.042 132.817 21C132.747 20.972 132.712 20.916 132.712 20.832C132.712 20.72 132.754 20.643 132.838 20.601C132.936 20.559 133.055 20.524 133.195 20.496C133.419 20.44 133.622 20.363 133.804 20.265C134 20.167 134.098 19.978 134.098 19.698V15.288C134.098 14.952 134.021 14.637 133.867 14.343C133.713 14.035 133.51 13.783 133.258 13.587C133.006 13.391 132.726 13.293 132.418 13.293C132.068 13.293 131.739 13.335 131.431 13.419C131.137 13.503 130.857 13.65 130.591 13.86C130.199 14.168 130.003 14.672 130.003 15.372V19.698C130.003 19.978 130.108 20.167 130.318 20.265C130.528 20.363 130.738 20.44 130.948 20.496C131.088 20.524 131.2 20.566 131.284 20.622C131.382 20.664 131.431 20.734 131.431 20.832C131.431 20.916 131.396 20.972 131.326 21C131.256 21.042 131.151 21.063 131.011 21.063C130.731 21.063 130.507 21.049 130.339 21.021C130.185 21.007 130.031 20.993 129.877 20.979C129.737 20.965 129.541 20.958 129.289 20.958C129.051 20.958 128.855 20.965 128.701 20.979C128.547 20.993 128.386 21.007 128.218 21.021C128.05 21.049 127.826 21.063 127.546 21.063C127.434 21.063 127.336 21.042 127.252 21C127.168 20.972 127.126 20.916 127.126 20.832C127.126 20.72 127.175 20.65 127.273 20.622C127.385 20.58 127.497 20.538 127.609 20.496C127.819 20.426 128.022 20.349 128.218 20.265C128.428 20.167 128.533 19.978 128.533 19.698V15.288C128.533 14.952 128.456 14.637 128.302 14.343C128.148 14.035 127.945 13.783 127.693 13.587C127.441 13.391 127.161 13.293 126.853 13.293C126.503 13.293 126.174 13.335 125.866 13.419C125.572 13.503 125.292 13.65 125.026 13.86C124.648 14.14 124.459 14.644 124.459 15.372V19.698C124.459 19.978 124.557 20.167 124.753 20.265C124.949 20.349 125.152 20.426 125.362 20.496C125.474 20.538 125.579 20.58 125.677 20.622C125.789 20.65 125.845 20.72 125.845 20.832C125.845 20.916 125.803 20.972 125.719 21C125.649 21.042 125.551 21.063 125.425 21.063C125.145 21.063 124.921 21.049 124.753 21.021C124.599 21.007 124.452 20.993 124.312 20.979C124.172 20.965 123.976 20.958 123.724 20.958C123.486 20.958 123.29 20.965 123.136 20.979C122.996 20.993 122.842 21.007 122.674 21.021C122.52 21.049 122.303 21.063 122.023 21.063ZM138.367 21.063C138.255 21.063 138.157 21.049 138.073 21.021C137.989 20.993 137.947 20.93 137.947 20.832C137.947 20.734 137.989 20.664 138.073 20.622C138.171 20.58 138.29 20.538 138.43 20.496C138.626 20.426 138.822 20.349 139.018 20.265C139.228 20.167 139.333 19.978 139.333 19.698V15.183C139.333 14.805 139.291 14.476 139.207 14.196C139.123 13.902 138.899 13.727 138.535 13.671C138.479 13.657 138.43 13.629 138.388 13.587C138.36 13.545 138.346 13.482 138.346 13.398C138.346 13.258 138.402 13.174 138.514 13.146C138.892 13.048 139.193 12.95 139.417 12.852C139.641 12.74 139.837 12.621 140.005 12.495C140.187 12.355 140.404 12.208 140.656 12.054C140.684 12.04 140.712 12.026 140.74 12.012C140.768 11.984 140.803 11.97 140.845 11.97C140.929 11.97 140.971 12.019 140.971 12.117C140.971 12.215 140.95 12.418 140.908 12.726C140.88 13.02 140.866 13.265 140.866 13.461C140.866 13.601 140.88 13.685 140.908 13.713H140.95C141.272 13.405 141.692 13.097 142.21 12.789C142.742 12.467 143.414 12.306 144.226 12.306C144.73 12.306 145.15 12.418 145.486 12.642C145.822 12.852 146.102 13.223 146.326 13.755H146.389C146.837 13.349 147.348 13.006 147.922 12.726C148.496 12.446 149.126 12.306 149.812 12.306C150.274 12.306 150.659 12.446 150.967 12.726C151.275 13.006 151.506 13.37 151.66 13.818C151.828 14.266 151.912 14.735 151.912 15.225V19.698C151.912 19.978 152.01 20.167 152.206 20.265C152.402 20.349 152.605 20.426 152.815 20.496C152.955 20.538 153.067 20.58 153.151 20.622C153.249 20.664 153.298 20.734 153.298 20.832C153.298 20.916 153.263 20.972 153.193 21C153.137 21.042 153.032 21.063 152.878 21.063C152.598 21.063 152.381 21.049 152.227 21.021C152.073 21.007 151.926 20.993 151.786 20.979C151.66 20.965 151.471 20.958 151.219 20.958C150.981 20.958 150.785 20.965 150.631 20.979C150.477 20.993 150.316 21.007 150.148 21.021C149.98 21.049 149.756 21.063 149.476 21.063C149.35 21.063 149.245 21.042 149.161 21C149.091 20.972 149.056 20.916 149.056 20.832C149.056 20.72 149.098 20.643 149.182 20.601C149.28 20.559 149.399 20.524 149.539 20.496C149.763 20.44 149.966 20.363 150.148 20.265C150.344 20.167 150.442 19.978 150.442 19.698V15.288C150.442 14.952 150.365 14.637 150.211 14.343C150.057 14.035 149.854 13.783 149.602 13.587C149.35 13.391 149.07 13.293 148.762 13.293C148.412 13.293 148.083 13.335 147.775 13.419C147.481 13.503 147.201 13.65 146.935 13.86C146.543 14.168 146.347 14.672 146.347 15.372V19.698C146.347 19.978 146.452 20.167 146.662 20.265C146.872 20.363 147.082 20.44 147.292 20.496C147.432 20.524 147.544 20.566 147.628 20.622C147.726 20.664 147.775 20.734 147.775 20.832C147.775 20.916 147.74 20.972 147.67 21C147.6 21.042 147.495 21.063 147.355 21.063C147.075 21.063 146.851 21.049 146.683 21.021C146.529 21.007 146.375 20.993 146.221 20.979C146.081 20.965 145.885 20.958 145.633 20.958C145.395 20.958 145.199 20.965 145.045 20.979C144.891 20.993 144.73 21.007 144.562 21.021C144.394 21.049 144.17 21.063 143.89 21.063C143.778 21.063 143.68 21.042 143.596 21C143.512 20.972 143.47 20.916 143.47 20.832C143.47 20.72 143.519 20.65 143.617 20.622C143.729 20.58 143.841 20.538 143.953 20.496C144.163 20.426 144.366 20.349 144.562 20.265C144.772 20.167 144.877 19.978 144.877 19.698V15.288C144.877 14.952 144.8 14.637 144.646 14.343C144.492 14.035 144.289 13.783 144.037 13.587C143.785 13.391 143.505 13.293 143.197 13.293C142.847 13.293 142.518 13.335 142.21 13.419C141.916 13.503 141.636 13.65 141.37 13.86C140.992 14.14 140.803 14.644 140.803 15.372V19.698C140.803 19.978 140.901 20.167 141.097 20.265C141.293 20.349 141.496 20.426 141.706 20.496C141.818 20.538 141.923 20.58 142.021 20.622C142.133 20.65 142.189 20.72 142.189 20.832C142.189 20.916 142.147 20.972 142.063 21C141.993 21.042 141.895 21.063 141.769 21.063C141.489 21.063 141.265 21.049 141.097 21.021C140.943 21.007 140.796 20.993 140.656 20.979C140.516 20.965 140.32 20.958 140.068 20.958C139.83 20.958 139.634 20.965 139.48 20.979C139.34 20.993 139.186 21.007 139.018 21.021C138.864 21.049 138.647 21.063 138.367 21.063ZM161.474 21.399C161.376 21.399 161.327 21.343 161.327 21.231C161.327 21.091 161.341 20.888 161.369 20.622C161.411 20.342 161.432 20.111 161.432 19.929C161.432 19.901 161.432 19.88 161.432 19.866C161.432 19.838 161.432 19.817 161.432 19.803C160.886 20.335 160.333 20.72 159.773 20.958C159.227 21.182 158.625 21.294 157.967 21.294C157.519 21.294 157.113 21.196 156.749 21C156.385 20.818 156.098 20.545 155.888 20.181C155.678 19.803 155.573 19.341 155.573 18.795V14.532C155.573 14.224 155.503 13.979 155.363 13.797C155.223 13.615 154.992 13.461 154.67 13.335C154.6 13.307 154.537 13.272 154.481 13.23C154.425 13.188 154.397 13.111 154.397 12.999C154.397 12.873 154.425 12.789 154.481 12.747C154.551 12.705 154.628 12.677 154.712 12.663C155.188 12.635 155.552 12.6 155.804 12.558C156.07 12.502 156.399 12.425 156.791 12.327C156.833 12.313 156.861 12.306 156.875 12.306C156.903 12.306 156.931 12.306 156.959 12.306C157.113 12.306 157.183 12.404 157.169 12.6C157.127 12.922 157.092 13.195 157.064 13.419C157.05 13.629 157.043 13.895 157.043 14.217V18.312C157.043 18.648 157.127 18.963 157.295 19.257C157.463 19.537 157.68 19.768 157.946 19.95C158.226 20.132 158.513 20.223 158.807 20.223C159.171 20.223 159.486 20.202 159.752 20.16C160.032 20.118 160.305 19.999 160.571 19.803C160.725 19.691 160.921 19.509 161.159 19.257C161.397 19.005 161.516 18.662 161.516 18.228V14.385C161.516 14.091 161.425 13.874 161.243 13.734C161.075 13.58 160.879 13.475 160.655 13.419C160.431 13.363 160.249 13.335 160.109 13.335C159.983 13.335 159.878 13.314 159.794 13.272C159.71 13.216 159.668 13.118 159.668 12.978C159.668 12.852 159.71 12.768 159.794 12.726C159.892 12.684 159.997 12.663 160.109 12.663C160.543 12.649 160.9 12.635 161.18 12.621C161.474 12.593 161.733 12.558 161.957 12.516C162.195 12.46 162.44 12.397 162.692 12.327C162.72 12.313 162.755 12.306 162.797 12.306C162.839 12.292 162.874 12.285 162.902 12.285C163.084 12.285 163.175 12.362 163.175 12.516C163.175 12.53 163.168 12.558 163.154 12.6C163.154 12.628 163.147 12.663 163.133 12.705C163.119 12.747 163.098 12.866 163.07 13.062C163.056 13.258 163.035 13.461 163.007 13.671C162.993 13.881 162.986 14.042 162.986 14.154V19.005C162.986 19.383 163.021 19.656 163.091 19.824C163.175 19.978 163.266 20.055 163.364 20.055C163.476 20.055 163.637 20.048 163.847 20.034C164.071 20.006 164.232 19.992 164.33 19.992C164.4 19.992 164.47 20.006 164.54 20.034C164.61 20.062 164.645 20.139 164.645 20.265C164.645 20.377 164.617 20.454 164.561 20.496C164.505 20.524 164.435 20.545 164.351 20.559C163.805 20.629 163.336 20.734 162.944 20.874C162.552 21.014 162.202 21.147 161.894 21.273C161.852 21.287 161.789 21.308 161.705 21.336C161.621 21.378 161.544 21.399 161.474 21.399ZM165.786 21.063C165.66 21.063 165.555 21.042 165.471 21C165.401 20.972 165.366 20.916 165.366 20.832C165.366 20.72 165.408 20.65 165.492 20.622C165.576 20.58 165.695 20.538 165.849 20.496C166.059 20.44 166.262 20.363 166.458 20.265C166.654 20.167 166.752 19.978 166.752 19.698V15.183C166.752 14.805 166.71 14.483 166.626 14.217C166.556 13.951 166.339 13.769 165.975 13.671C165.919 13.643 165.87 13.615 165.828 13.587C165.786 13.545 165.765 13.482 165.765 13.398C165.765 13.244 165.828 13.16 165.954 13.146C166.444 13.02 166.843 12.866 167.151 12.684C167.459 12.502 167.76 12.299 168.054 12.075C168.096 12.047 168.131 12.026 168.159 12.012C168.201 11.984 168.243 11.97 168.285 11.97C168.313 11.97 168.334 11.984 168.348 12.012C168.376 12.04 168.39 12.075 168.39 12.117C168.39 12.215 168.369 12.418 168.327 12.726C168.299 13.02 168.285 13.265 168.285 13.461C168.285 13.517 168.285 13.573 168.285 13.629C168.299 13.671 168.313 13.699 168.327 13.713C168.817 13.251 169.335 12.901 169.881 12.663C170.441 12.425 171.05 12.306 171.708 12.306C172.394 12.306 172.961 12.586 173.409 13.146C173.857 13.706 174.081 14.399 174.081 15.225V19.698C174.081 19.978 174.179 20.167 174.375 20.265C174.571 20.349 174.774 20.426 174.984 20.496C175.096 20.538 175.201 20.587 175.299 20.643C175.411 20.685 175.467 20.762 175.467 20.874C175.467 20.958 175.418 21.007 175.32 21.021C175.222 21.049 175.131 21.063 175.047 21.063C174.767 21.063 174.55 21.049 174.396 21.021C174.242 21.007 174.095 20.993 173.955 20.979C173.815 20.965 173.619 20.958 173.367 20.958C173.129 20.958 172.933 20.965 172.779 20.979C172.625 20.993 172.464 21.007 172.296 21.021C172.142 21.049 171.925 21.063 171.645 21.063C171.575 21.063 171.484 21.049 171.372 21.021C171.274 21.007 171.225 20.958 171.225 20.874C171.225 20.762 171.274 20.685 171.372 20.643C171.484 20.587 171.596 20.538 171.708 20.496C171.918 20.426 172.121 20.349 172.317 20.265C172.513 20.167 172.611 19.978 172.611 19.698V15.288C172.611 14.672 172.436 14.196 172.086 13.86C171.75 13.51 171.295 13.328 170.721 13.314C170.217 13.314 169.776 13.398 169.398 13.566C169.02 13.72 168.684 13.916 168.39 14.154C168.334 14.21 168.292 14.287 168.264 14.385C168.236 14.469 168.222 14.553 168.222 14.637V19.698C168.222 19.978 168.32 20.167 168.516 20.265C168.712 20.363 168.915 20.44 169.125 20.496C169.447 20.58 169.608 20.692 169.608 20.832C169.608 20.916 169.573 20.972 169.503 21C169.433 21.042 169.328 21.063 169.188 21.063C168.908 21.063 168.684 21.049 168.516 21.021C168.362 21.007 168.215 20.993 168.075 20.979C167.935 20.965 167.739 20.958 167.487 20.958C167.249 20.958 167.053 20.965 166.899 20.979C166.759 20.993 166.605 21.007 166.437 21.021C166.283 21.049 166.066 21.063 165.786 21.063ZM176.881 21.063C176.755 21.063 176.65 21.042 176.566 21C176.496 20.972 176.461 20.916 176.461 20.832C176.461 20.72 176.51 20.643 176.608 20.601C176.72 20.559 176.832 20.524 176.944 20.496C177.238 20.426 177.462 20.342 177.616 20.244C177.77 20.132 177.847 19.95 177.847 19.698V15.141C177.847 14.763 177.777 14.427 177.637 14.133C177.511 13.839 177.266 13.664 176.902 13.608C176.832 13.594 176.776 13.566 176.734 13.524C176.706 13.482 176.692 13.419 176.692 13.335C176.692 13.181 176.755 13.097 176.881 13.083C177.441 12.957 177.903 12.789 178.267 12.579C178.631 12.355 178.904 12.173 179.086 12.033C179.212 11.935 179.31 11.886 179.38 11.886C179.464 11.886 179.506 11.921 179.506 11.991C179.506 12.103 179.485 12.327 179.443 12.663C179.415 12.985 179.387 13.349 179.359 13.755C179.331 14.147 179.317 14.504 179.317 14.826V19.698C179.317 19.936 179.394 20.111 179.548 20.223C179.716 20.335 179.94 20.426 180.22 20.496C180.332 20.524 180.437 20.559 180.535 20.601C180.647 20.643 180.703 20.72 180.703 20.832C180.703 20.986 180.563 21.063 180.283 21.063C180.017 21.063 179.8 21.049 179.632 21.021C179.478 21.007 179.324 20.993 179.17 20.979C179.03 20.965 178.834 20.958 178.582 20.958C178.344 20.958 178.148 20.965 177.994 20.979C177.84 20.993 177.686 21.007 177.532 21.021C177.378 21.049 177.161 21.063 176.881 21.063ZM178.561 10.164C178.267 10.164 178.015 10.066 177.805 9.87C177.609 9.66 177.511 9.408 177.511 9.114C177.511 8.806 177.609 8.554 177.805 8.358C178.015 8.148 178.267 8.043 178.561 8.043C178.869 8.043 179.121 8.148 179.317 8.358C179.527 8.554 179.632 8.806 179.632 9.114C179.632 9.408 179.527 9.66 179.317 9.87C179.121 10.066 178.869 10.164 178.561 10.164ZM185.073 21.294C184.387 21.294 183.848 21.084 183.456 20.664C183.078 20.244 182.889 19.621 182.889 18.795V13.923C182.889 13.811 182.847 13.734 182.763 13.692C182.679 13.636 182.497 13.608 182.217 13.608H182.091C182.021 13.608 181.958 13.566 181.902 13.482C181.86 13.384 181.839 13.286 181.839 13.188C181.839 13.16 181.86 13.118 181.902 13.062C181.944 13.006 181.972 12.971 181.986 12.957C182.266 12.761 182.518 12.565 182.742 12.369C182.98 12.173 183.19 11.984 183.372 11.802C183.568 11.606 183.729 11.431 183.855 11.277C183.925 11.207 183.981 11.151 184.023 11.109C184.079 11.053 184.142 11.025 184.212 11.025C184.282 11.025 184.345 11.039 184.401 11.067C184.471 11.095 184.499 11.158 184.485 11.256L184.38 12.201C184.366 12.355 184.401 12.46 184.485 12.516C184.569 12.572 184.702 12.6 184.884 12.6H187.278C187.334 12.6 187.383 12.649 187.425 12.747C187.467 12.831 187.488 12.936 187.488 13.062C187.488 13.188 187.467 13.314 187.425 13.44C187.383 13.552 187.334 13.608 187.278 13.608H185.199C184.849 13.608 184.618 13.636 184.506 13.692C184.408 13.748 184.359 13.916 184.359 14.196V18.333C184.359 18.893 184.478 19.334 184.716 19.656C184.954 19.978 185.297 20.139 185.745 20.139C186.151 20.139 186.466 20.111 186.69 20.055C186.914 19.985 187.117 19.887 187.299 19.761C187.327 19.733 187.355 19.719 187.383 19.719C187.439 19.719 187.474 19.754 187.488 19.824C187.516 19.88 187.53 19.943 187.53 20.013C187.53 20.083 187.411 20.223 187.173 20.433C186.949 20.643 186.648 20.839 186.27 21.021C185.906 21.203 185.507 21.294 185.073 21.294ZM189.052 26.985C188.786 26.985 188.541 26.915 188.317 26.775C188.093 26.649 187.981 26.432 187.981 26.124C187.981 25.872 188.037 25.648 188.149 25.452C188.275 25.27 188.45 25.179 188.674 25.179C188.828 25.179 188.975 25.2 189.115 25.242C189.269 25.284 189.402 25.305 189.514 25.305C189.598 25.305 189.668 25.284 189.724 25.242C189.794 25.214 189.857 25.158 189.913 25.074C190.067 24.822 190.242 24.507 190.438 24.129C190.648 23.751 190.858 23.324 191.068 22.848C191.292 22.372 191.502 21.868 191.698 21.336C191.74 21.21 191.761 21.049 191.761 20.853C191.761 20.741 191.754 20.636 191.74 20.538C191.726 20.426 191.705 20.328 191.677 20.244L189.241 14.091C189.143 13.839 189.01 13.622 188.842 13.44C188.688 13.244 188.506 13.118 188.296 13.062C188.184 13.02 188.072 12.971 187.96 12.915C187.862 12.859 187.813 12.782 187.813 12.684C187.813 12.6 187.862 12.551 187.96 12.537C188.072 12.509 188.163 12.495 188.233 12.495C188.513 12.495 188.716 12.502 188.842 12.516C188.982 12.53 189.108 12.551 189.22 12.579C189.346 12.593 189.528 12.6 189.766 12.6C190.018 12.6 190.207 12.593 190.333 12.579C190.459 12.551 190.592 12.53 190.732 12.516C190.872 12.502 191.082 12.495 191.362 12.495C191.446 12.495 191.537 12.516 191.635 12.558C191.733 12.586 191.782 12.642 191.782 12.726C191.782 12.824 191.705 12.922 191.551 13.02C191.411 13.104 191.285 13.16 191.173 13.188C191.033 13.23 190.928 13.307 190.858 13.419C190.788 13.517 190.753 13.664 190.753 13.86C190.753 13.944 190.774 14.049 190.816 14.175C190.858 14.287 190.893 14.378 190.921 14.448L192.622 18.648C192.65 18.732 192.692 18.774 192.748 18.774C192.79 18.774 192.825 18.732 192.853 18.648L194.302 14.805C194.344 14.707 194.379 14.581 194.407 14.427C194.449 14.259 194.47 14.126 194.47 14.028C194.47 13.762 194.428 13.58 194.344 13.482C194.274 13.37 194.176 13.286 194.05 13.23C193.938 13.174 193.805 13.104 193.651 13.02C193.511 12.922 193.441 12.824 193.441 12.726C193.441 12.642 193.49 12.586 193.588 12.558C193.7 12.516 193.791 12.495 193.861 12.495C194.057 12.495 194.253 12.516 194.449 12.558C194.659 12.586 194.96 12.6 195.352 12.6C195.618 12.6 195.807 12.593 195.919 12.579C196.045 12.551 196.15 12.53 196.234 12.516C196.318 12.502 196.437 12.495 196.591 12.495C196.661 12.495 196.745 12.509 196.843 12.537C196.955 12.551 197.011 12.6 197.011 12.684C197.011 12.782 196.955 12.859 196.843 12.915C196.745 12.971 196.64 13.02 196.528 13.062C196.318 13.118 196.094 13.286 195.856 13.566C195.618 13.832 195.429 14.133 195.289 14.469L192.433 21.273C192.419 21.315 192.342 21.497 192.202 21.819C192.076 22.141 191.915 22.54 191.719 23.016C191.523 23.492 191.306 24.003 191.068 24.549C190.844 25.095 190.627 25.62 190.417 26.124C190.291 26.404 190.109 26.614 189.871 26.754C189.633 26.908 189.36 26.985 189.052 26.985Z" fill="black"/>
</svg>
